<svg width="227" height="187" viewBox="0 0 227 187" fill="none" xmlns="http://www.w3.org/2000/svg">
<path d="M9.01099 78L217.06 94.1855" stroke="#695C5C" stroke-width="4"/>
<path d="M184.12 94.4694C184.12 134.757 152.065 167.384 112.56 167.384C73.056 167.384 41 134.757 41 94.4694C41 54.1821 73.056 21.5545 112.56 21.5545C152.065 21.5545 184.12 54.1821 184.12 94.4694Z" fill="#FF5152" stroke="black" stroke-width="2"/>
<path d="M175.796 104.61C174.392 120.881 166.38 135.866 153.521 146.269C140.662 156.673 124.011 161.641 107.23 160.083C90.4493 158.524 74.9135 150.565 64.0404 137.958C53.1674 125.35 47.8477 109.126 49.2517 92.8552L112.524 98.7324L175.796 104.61Z" fill="#D21942"/>
<path d="M181.163 101.313C181.163 121.724 153.333 145.115 119.816 145.115C86.3 145.115 47.9158 121.724 47.9158 101.313C47.9158 80.9023 78.3843 60.2495 111.901 60.2495C145.417 60.2495 181.163 80.9023 181.163 101.313Z" fill="#FF5152"/>
<ellipse cx="1.32296" cy="1.36877" rx="1.32296" ry="1.36877" transform="matrix(0.999771 0.0213959 -0.0198765 0.999802 160.106 99.723)" fill="#5F4036"/>
<ellipse cx="83.5362" cy="87.6254" rx="9.23494" ry="10.9504" fill="#00006F"/>
<ellipse cx="1.66027" cy="1.8544" rx="1.66027" ry="1.8544" transform="matrix(0.999771 0.0213959 -0.0198765 0.999802 59.863 87.6254)" fill="#5F4036"/>
<ellipse cx="1.66027" cy="1.8544" rx="1.66027" ry="1.8544" transform="matrix(0.999771 0.0213959 -0.0198765 0.999802 57.2244 99.9445)" fill="#5F4036" fill-opacity="0.66"/>
<path d="M72.6997 98.8104C72.6793 99.8344 71.9197 100.649 71.003 100.629C70.0862 100.609 69.3596 99.7633 69.3799 98.7394C69.4003 97.7154 70.1599 96.9013 71.0767 96.9209C71.9934 96.9405 72.7201 97.7865 72.6997 98.8104Z" fill="#5F4036" fill-opacity="0.66"/>
<ellipse cx="1.66027" cy="1.8544" rx="1.66027" ry="1.8544" transform="matrix(0.999771 0.0213959 -0.0198765 0.999802 149.574 113.632)" fill="#5F4036"/>
<path d="M150.819 93.1006C150.819 99.1483 146.685 104.051 141.584 104.051C136.484 104.051 132.349 99.1483 132.349 93.1006C132.349 87.0528 136.484 82.1502 141.584 82.1502C146.685 82.1502 150.819 87.0528 150.819 93.1006Z" fill="#00006F"/>
<path d="M123.784 108.047C123.884 106.852 123.66 105.641 123.126 104.481C122.591 103.321 121.755 102.235 120.667 101.286C119.578 100.336 118.258 99.5418 116.782 98.9478C115.305 98.3538 113.702 97.9717 112.062 97.8234C110.422 97.6751 108.779 97.7635 107.226 98.0835C105.672 98.4036 104.24 98.9489 103.009 99.6885C101.779 100.428 100.775 101.347 100.055 102.394C99.3348 103.441 98.9125 104.594 98.8121 105.788L102.642 106.135C102.712 105.307 103.005 104.507 103.504 103.782C104.003 103.056 104.699 102.419 105.552 101.906C106.405 101.394 107.398 101.015 108.475 100.794C109.552 100.572 110.691 100.51 111.828 100.613C112.964 100.716 114.076 100.981 115.1 101.393C116.123 101.805 117.038 102.355 117.793 103.013C118.547 103.671 119.126 104.424 119.497 105.228C119.868 106.032 120.023 106.872 119.953 107.7L123.784 108.047Z" fill="#00006F"/>
<ellipse cx="86.1748" cy="85.5722" rx="3.95783" ry="4.79078" fill="white"/>
<ellipse cx="138.946" cy="91.0474" rx="3.95783" ry="4.79078" fill="white"/>
<ellipse cx="79.5783" cy="90.363" rx="2.63855" ry="2.73759" fill="#5F5EAC"/>
<ellipse cx="144.223" cy="97.2069" rx="2.63855" ry="2.73759" fill="#5F5EAC"/>
<path d="M109.789 20.6183L110.305 3.05709L124.53 1.93778L122.337 21.7782L109.789 20.6183Z" fill="#30A73C" stroke="black"/>
<path d="M65.4805 44.5949C64.4183 45.1272 63.0565 45.8097 61.206 46.723C61.3247 45.6393 61.8985 44.3965 62.8894 43.0436C64.0052 41.5205 65.6302 39.8846 67.6586 38.2174C71.7145 34.8836 77.3567 31.4463 83.6837 28.554C90.01 25.662 97.0113 23.3194 103.783 22.1688C110.558 21.0176 117.083 21.0628 122.471 22.926L122.511 22.9398H122.553C135.379 22.9398 146.877 29.759 155.185 36.6071C159.336 40.0285 162.683 43.4504 164.992 46.017C166.146 47.3001 167.041 48.369 167.647 49.1166C167.688 49.1672 167.727 49.2164 167.766 49.2641C159.269 44.5859 147.818 44.427 135.963 46.1075C125.42 47.6022 114.51 50.5601 105.003 53.1376C103.33 53.5913 101.7 54.0331 100.123 54.4532C94.8501 55.858 90.1761 57.0172 86.4469 57.5628C84.5823 57.8356 82.9639 57.9534 81.6304 57.8747C80.2931 57.7957 79.2695 57.5203 78.5712 57.031C77.8867 56.5514 77.4917 55.8503 77.4358 54.8508C77.3792 53.8374 77.6723 52.5162 78.3884 50.8289C79.8199 47.4557 82.9012 42.7102 88.0078 36.2107L88.5647 35.502L87.7223 35.8226C80.5747 38.5434 76.4586 40.057 73.8367 41.0211C72.1522 41.6406 71.0844 42.0332 70.2259 42.3734C68.7321 42.9654 67.8539 43.4055 65.4805 44.5949Z" fill="url(#paint0_linear_466_462)" stroke="black" stroke-width="0.5"/>
<path d="M94.1838 55.1141C89.6729 56.1771 84.2892 57.8517 79.6718 56.4829C76.6991 54.348 83.5531 45.1913 85.6085 42.1106C87.6638 39.0299 80.6569 50.926 83.6295 53.0609C86.7164 56.7237 88.9067 55.1141 94.1838 55.1141Z" fill="#539059" fill-opacity="0.55"/>
<path d="M96.2303 36.4874C95.2014 38.0452 93.6912 38.8273 92.8574 38.2344C92.0235 37.6415 92.1817 35.898 93.2107 34.3402C94.2397 32.7824 95.7498 32.0003 96.5837 32.5932C97.4175 33.1861 97.2593 34.9296 96.2303 36.4874Z" fill="#539059" fill-opacity="0.55"/>
<path d="M112.56 5.08709L121.795 4.12892V5.49772L112.56 8.2353V5.08709Z" fill="#115C19"/>
<ellipse cx="1.20586" cy="1.27226" rx="1.20586" ry="1.27226" transform="matrix(0.999771 0.0213959 -0.0198765 0.999802 154.828 106.788)" fill="#5F4036" fill-opacity="0.91"/>
<ellipse cx="1.66027" cy="1.8544" rx="1.66027" ry="1.8544" transform="matrix(0.999771 0.0213959 -0.0198765 0.999802 65.14 108.157)" fill="#5F4036"/>
<ellipse cx="1.7124" cy="2.01561" rx="1.7124" ry="2.01561" transform="matrix(0.999746 0.0225485 -0.0188605 0.999822 75.076 107)" fill="#5F4036"/>
<ellipse cx="1.66027" cy="1.8544" rx="1.66027" ry="1.8544" transform="matrix(0.999771 0.0213959 -0.0198765 0.999802 161.447 112.264)" fill="#5F4036" fill-opacity="0.6"/>
<ellipse cx="1.66027" cy="1.8544" rx="1.66027" ry="1.8544" transform="matrix(0.999771 0.0213959 -0.0198765 0.999802 165.405 104.051)" fill="#5F4036"/>
<line x1="78.4656" y1="159.182" x2="69.4656" y2="182.182" stroke="black"/>
<line y1="-0.5" x2="20.2237" y2="-0.5" transform="matrix(0.14834 0.988936 -0.992404 0.123025 126 167)" stroke="black"/>
<path d="M69.7226 182.846L62.9999 180.43" stroke="black"/>
<line y1="-0.5" x2="8.05149" y2="-0.5" transform="matrix(0.993605 -0.11291 0.136218 0.990679 129 187)" stroke="black"/>
<path d="M205.124 95C205.781 97.524 205.4 99.3159 204.427 101.942C203.453 104.568 201.696 107.072 199.291 109.262C196.887 111.452 193.898 113.269 190.555 114.574C187.212 115.878 183.604 116.635 180.008 116.787L180.125 115.609C183.476 115.467 186.839 114.762 189.954 113.546C193.07 112.33 195.856 110.637 198.097 108.596C200.338 106.555 201.975 104.221 202.883 101.774C203.79 99.326 204.067 97.3523 203.454 95L205.124 95Z" fill="black"/>
<path d="M43.1678 108.108C39.8006 109.652 36.3546 110.121 33.1264 109.473C29.8982 108.826 26.9846 107.082 24.6364 104.391C22.2882 101.701 20.5758 98.1441 19.6466 94.0281C18.7174 89.9121 18.5993 85.3597 19.3024 80.7631L20.7023 80.8054C20.047 85.0895 20.1571 89.3321 21.0231 93.1682C21.8891 97.0043 23.485 100.319 25.6735 102.826C27.862 105.334 30.5774 106.959 33.5861 107.563C36.5947 108.166 39.8063 107.73 42.9445 106.29L43.1678 108.108Z" fill="black"/>
<path d="M83.0001 70.5L96.9041 80.8768" stroke="black"/>
<path d="M147.169 77L130.169 83.0885" stroke="black"/>
<path d="M37.5 108C37.5 108.828 35.433 108.205 33.5 108.205C31.567 108.205 28.5 107.518 28.5 106.69C28.5 105.861 31.567 105.205 33.5 105.205C35.433 105.205 37.5 107.172 37.5 108Z" fill="black"/>
<path d="M194.5 112.172C194.704 112.788 191.873 113.107 189.884 113.766C187.895 114.425 185.204 116.116 185 115.5C184.796 114.884 187.156 112.195 189.145 111.536C191.134 110.877 194.296 111.556 194.5 112.172Z" fill="black"/>
<rect width="4.84156" height="28.5431" transform="matrix(0.998316 0.0580182 -0.0543993 0.998519 1.55273 61.812)" fill="url(#paint1_linear_466_462)"/>
<rect width="4.84156" height="28.5431" transform="matrix(0.998316 0.0580182 -0.0543993 0.998519 1.55273 61.812)" fill="url(#paint2_linear_466_462)"/>
<rect width="4.84156" height="20.6585" transform="matrix(0.998316 0.0580182 -0.0543993 0.998519 6.09302 67.8729)" fill="url(#paint3_linear_466_462)"/>
<rect width="4.84156" height="20.6585" transform="matrix(0.998316 0.0580182 -0.0543993 0.998519 6.09302 67.8729)" fill="url(#paint4_linear_466_462)"/>
<rect width="4.77564" height="28.5412" transform="matrix(-0.997969 -0.063699 -0.0581096 0.99831 227 80.3042)" fill="url(#paint5_linear_466_462)"/>
<rect width="4.77564" height="28.5412" transform="matrix(-0.997969 -0.063699 -0.0581096 0.99831 227 80.3042)" fill="url(#paint6_linear_466_462)"/>
<rect width="4.77564" height="20.6572" transform="matrix(-0.997969 -0.063699 -0.0581096 0.99831 221.877 85.7758)" fill="url(#paint7_linear_466_462)"/>
<rect width="4.77564" height="20.6572" transform="matrix(-0.997969 -0.063699 -0.0581096 0.99831 221.877 85.7758)" fill="url(#paint8_linear_466_462)"/>
<rect x="18.1548" y="76" width="4.92304" height="1.90904" transform="rotate(4.65124 18.1548 76)" fill="black"/>
<rect x="202.155" y="90" width="4.92304" height="1.90904" transform="rotate(4.65124 202.155 90)" fill="black"/>
<defs>
<linearGradient id="paint0_linear_466_462" x1="82.2168" y1="54.0899" x2="114.362" y2="23.1079" gradientUnits="userSpaceOnUse">
<stop stop-color="#0D6215"/>
<stop offset="0.9999" stop-color="#2E9E39"/>
</linearGradient>
<linearGradient id="paint1_linear_466_462" x1="2.42078" y1="0" x2="2.42078" y2="28.5431" gradientUnits="userSpaceOnUse">
<stop stop-color="#FFFAFA"/>
<stop offset="0.23" stop-color="#CFB5B5"/>
</linearGradient>
<linearGradient id="paint2_linear_466_462" x1="2.42078" y1="0" x2="2.42078" y2="28.5431" gradientUnits="userSpaceOnUse">
<stop stop-color="#FFFAFA"/>
<stop offset="0.04" stop-color="#AEA4A4"/>
<stop offset="0.74" stop-color="#9F9C9C"/>
<stop offset="1" stop-color="#686262"/>
</linearGradient>
<linearGradient id="paint3_linear_466_462" x1="2.42078" y1="0" x2="2.42078" y2="20.6585" gradientUnits="userSpaceOnUse">
<stop stop-color="#FFFAFA"/>
<stop offset="0.23" stop-color="#CFB5B5"/>
</linearGradient>
<linearGradient id="paint4_linear_466_462" x1="2.42078" y1="0" x2="2.42078" y2="20.6585" gradientUnits="userSpaceOnUse">
<stop stop-color="#FFFAFA"/>
<stop offset="0.04" stop-color="#AEA4A4"/>
<stop offset="0.74" stop-color="#9F9C9C"/>
<stop offset="1" stop-color="#686262"/>
</linearGradient>
<linearGradient id="paint5_linear_466_462" x1="2.38782" y1="0" x2="2.38782" y2="28.5412" gradientUnits="userSpaceOnUse">
<stop stop-color="#FFFAFA"/>
<stop offset="0.23" stop-color="#CFB5B5"/>
</linearGradient>
<linearGradient id="paint6_linear_466_462" x1="2.38782" y1="0" x2="2.38782" y2="28.5412" gradientUnits="userSpaceOnUse">
<stop stop-color="#FFFAFA"/>
<stop offset="0.04" stop-color="#AEA4A4"/>
<stop offset="0.74" stop-color="#9F9C9C"/>
<stop offset="1" stop-color="#686262"/>
</linearGradient>
<linearGradient id="paint7_linear_466_462" x1="2.38782" y1="0" x2="2.38782" y2="20.6572" gradientUnits="userSpaceOnUse">
<stop stop-color="#FFFAFA"/>
<stop offset="0.23" stop-color="#CFB5B5"/>
</linearGradient>
<linearGradient id="paint8_linear_466_462" x1="2.38782" y1="0" x2="2.38782" y2="20.6572" gradientUnits="userSpaceOnUse">
<stop stop-color="#FFFAFA"/>
<stop offset="0.04" stop-color="#AEA4A4"/>
<stop offset="0.74" stop-color="#9F9C9C"/>
<stop offset="1" stop-color="#686262"/>
</linearGradient>
</defs>
</svg>
