<svg width="201" height="156" viewBox="0 0 201 156" fill="none" xmlns="http://www.w3.org/2000/svg">
<line y1="-0.5" x2="22.2877" y2="-0.5" transform="matrix(-0.365203 0.930928 -0.931556 -0.363597 117.659 130.741)" stroke="black"/>
<line y1="-0.5" x2="18.2448" y2="-0.5" transform="matrix(0.14871 0.988881 -0.992442 0.122718 161.07 137.958)" stroke="black"/>
<path d="M110.173 152.253L104.093 150.073" stroke="black"/>
<line y1="-0.5" x2="7.28219" y2="-0.5" transform="matrix(0.993637 -0.112627 0.136558 0.990632 163.783 156)" stroke="black"/>
<path d="M197.027 91.2757C197.027 118.462 174.093 140.566 145.719 140.566C117.345 140.566 94.4109 118.462 94.4109 91.2757C94.4109 64.0899 117.345 41.985 145.719 41.985C174.093 41.985 197.027 64.0899 197.027 91.2757Z" fill="#FF5152" stroke="black" stroke-width="2"/>
<path d="M191.305 98.175C190.293 109.246 184.517 119.442 175.247 126.52C165.977 133.598 153.974 136.979 141.876 135.918C129.779 134.858 118.58 129.443 110.741 120.865C102.903 112.287 99.0682 101.248 100.08 90.1775L145.693 94.1762L191.305 98.175Z" fill="#D21942"/>
<path d="M195.174 95.9323C195.174 109.82 175.112 125.734 150.95 125.734C126.788 125.734 99.1177 109.82 99.1177 95.9323C99.1177 82.0449 121.082 67.993 145.244 67.993C169.405 67.993 195.174 82.0449 195.174 95.9323Z" fill="#FF5152"/>
<ellipse cx="0.953682" cy="0.931318" rx="0.953682" ry="0.931318" transform="matrix(0.999796 0.0201943 -0.0210593 0.999778 179.994 94.8502)" fill="#5F4036"/>
<ellipse cx="124.796" cy="86.6192" rx="6.65738" ry="7.45048" fill="#00006F"/>
<ellipse cx="1.19684" cy="1.26174" rx="1.19684" ry="1.26174" transform="matrix(0.999796 0.0201943 -0.0210593 0.999778 107.73 86.6192)" fill="#5F4036"/>
<ellipse cx="1.19684" cy="1.26174" rx="1.19684" ry="1.26174" transform="matrix(0.999796 0.0201943 -0.0210593 0.999778 105.828 95.0009)" fill="#5F4036" fill-opacity="0.66"/>
<path d="M115.295 95.6681C115.28 96.3648 114.733 96.9187 114.072 96.9054C113.411 96.892 112.887 96.3165 112.902 95.6198C112.916 94.9231 113.464 94.3691 114.125 94.3825C114.786 94.3958 115.31 94.9714 115.295 95.6681Z" fill="#5F4036" fill-opacity="0.66"/>
<ellipse cx="1.19684" cy="1.26174" rx="1.19684" ry="1.26174" transform="matrix(0.999796 0.0201943 -0.0210593 0.999778 172.402 104.314)" fill="#5F4036"/>
<path d="M173.299 90.3444C173.299 94.4592 170.319 97.7949 166.642 97.7949C162.965 97.7949 159.985 94.4592 159.985 90.3444C159.985 86.2296 162.965 82.8939 166.642 82.8939C170.319 82.8939 173.299 86.2296 173.299 90.3444Z" fill="#00006F"/>
<ellipse cx="6.19621" cy="6.42469" rx="6.19621" ry="6.42469" transform="matrix(0.997237 0.0742788 -0.101487 0.994837 138.689 92.3172)" fill="#00006F"/>
<path d="M147.913 102.664C147.864 103.588 146.072 104.267 143.91 104.183C141.749 104.098 140.037 103.281 140.087 102.357C140.136 101.434 141.929 100.754 144.09 100.839C146.251 100.924 147.963 101.741 147.913 102.664Z" fill="#FF7778"/>
<ellipse cx="126.698" cy="85.2222" rx="2.85316" ry="3.25958" fill="white"/>
<ellipse cx="164.74" cy="88.9474" rx="2.85316" ry="3.25958" fill="white"/>
<ellipse cx="121.943" cy="88.4818" rx="1.90211" ry="1.86262" fill="#5F5EAC"/>
<ellipse cx="168.544" cy="93.1383" rx="1.90211" ry="1.86262" fill="#5F5EAC"/>
<path d="M143.866 40.8808L144.228 29.2294L154.187 28.4898L152.646 41.6468L143.866 40.8808Z" fill="#30A73C" stroke="black"/>
<path d="M111.751 57.2693C111.007 57.6209 110.061 58.0685 108.787 58.6622C108.903 57.9801 109.298 57.1973 109.964 56.3391C110.763 55.3097 111.929 54.201 113.389 53.0687C116.307 50.8049 120.369 48.4689 124.926 46.5026C129.483 44.5366 134.525 42.9444 139.401 42.1625C144.28 41.3801 148.974 41.4119 152.845 42.6755L152.883 42.6878H152.923C162.15 42.6878 170.424 47.3183 176.408 51.9731C179.397 54.2983 181.807 56.6239 183.47 58.3681C184.198 59.1322 184.783 59.7844 185.209 60.2758C179.102 57.2499 170.975 57.1686 162.582 58.2916C154.978 59.309 147.109 61.3226 140.256 63.0763C139.05 63.3849 137.875 63.6855 136.739 63.9711C132.937 64.927 129.571 65.7149 126.886 66.0856C125.544 66.271 124.381 66.3506 123.425 66.2974C122.465 66.2438 121.74 66.0574 121.251 65.7339C120.777 65.4204 120.507 64.9669 120.468 64.3145C120.428 63.6459 120.633 62.7623 121.147 61.6194C122.174 59.3353 124.389 56.1137 128.07 51.6921L128.657 50.9865L127.793 51.2969C122.643 53.1473 119.675 54.1774 117.784 54.8336C116.569 55.2554 115.799 55.5228 115.18 55.7543C114.1 56.158 113.464 56.4589 111.751 57.2693Z" fill="url(#paint0_linear_473_1300)" stroke="black" stroke-width="0.5"/>
<path d="M132.472 64.4989C129.22 65.2221 125.339 66.3615 122.01 65.4302C119.867 63.9776 124.808 57.7476 126.29 55.6515C127.771 53.5554 122.72 61.6494 124.863 63.1019C127.088 65.594 128.667 64.4989 132.472 64.4989Z" fill="#539059" fill-opacity="0.55"/>
<path d="M133.947 51.8255C133.205 52.8854 132.116 53.4176 131.515 53.0142C130.914 52.6108 131.028 51.4245 131.77 50.3646C132.512 49.3047 133.6 48.7726 134.201 49.176C134.803 49.5794 134.689 50.7656 133.947 51.8255Z" fill="#539059" fill-opacity="0.55"/>
<path d="M145.719 30.4612L152.376 29.8092V30.7406L145.719 32.6032V30.4612Z" fill="#115C19"/>
<ellipse cx="0.869272" cy="0.865647" rx="0.869272" ry="0.865647" transform="matrix(0.999796 0.0201943 -0.0210593 0.999778 176.189 99.6575)" fill="#5F4036" fill-opacity="0.91"/>
<ellipse cx="1.19684" cy="1.26174" rx="1.19684" ry="1.26174" transform="matrix(0.999796 0.0201943 -0.0210593 0.999778 111.534 100.589)" fill="#5F4036"/>
<ellipse cx="1.23442" cy="1.37142" rx="1.23442" ry="1.37142" transform="matrix(0.999773 0.0212822 -0.0199828 0.9998 120.785 106.46)" fill="#5F4036"/>
<ellipse cx="1.19684" cy="1.26174" rx="1.19684" ry="1.26174" transform="matrix(0.999796 0.0201943 -0.0210593 0.999778 180.961 103.383)" fill="#5F4036" fill-opacity="0.6"/>
<ellipse cx="1.19684" cy="1.26174" rx="1.19684" ry="1.26174" transform="matrix(0.999796 0.0201943 -0.0210593 0.999778 183.814 97.7949)" fill="#5F4036"/>
<path d="M117.268 71.3964C117.595 70.3964 118.105 70.0113 118.987 69.6061C119.87 69.201 120.982 69.1322 122.239 69.405C123.496 69.6779 124.863 70.2851 126.236 71.18C127.61 72.0749 128.952 73.2336 130.16 74.567L129.869 74.8714C128.743 73.6286 127.492 72.5487 126.212 71.7147C124.932 70.8807 123.658 70.3148 122.486 70.0605C121.315 69.8062 120.278 69.8703 119.456 70.2479C118.633 70.6255 118.119 71.1044 117.814 72.0364L117.268 71.3964Z" fill="black"/>
<path d="M172.543 76.2896C172.396 77.327 171.961 77.7864 171.162 78.3239C170.362 78.8614 169.277 79.1032 167.99 79.0305C166.703 78.9579 165.054 78.8429 163.543 78.175C162.032 77.5072 160.293 76.627 159.172 75.1901L159.506 74.8323C160.835 75.8819 162.258 76.7513 163.667 77.3738C165.075 77.9962 166.431 78.3551 167.631 78.4228C168.831 78.4905 169.842 78.2652 170.587 77.7643C171.332 77.2633 171.755 76.7106 171.892 75.7438L172.543 76.2896Z" fill="black"/>
<mask id="path-33-inside-1_473_1300" fill="white">
<path d="M181.436 121.906C183.599 122.121 185.773 121.825 187.767 121.042C189.761 120.26 191.514 119.016 192.873 117.419C194.232 115.822 195.156 113.921 195.562 111.882C195.968 109.844 195.846 107.73 195.204 105.726L194.342 105.965C194.94 107.832 195.054 109.802 194.675 111.702C194.297 113.602 193.436 115.374 192.17 116.862C190.903 118.351 189.269 119.51 187.411 120.239C185.552 120.968 183.526 121.244 181.51 121.044L181.436 121.906Z"/>
</mask>
<path d="M181.436 121.906C183.599 122.121 185.773 121.825 187.767 121.042C189.761 120.26 191.514 119.016 192.873 117.419C194.232 115.822 195.156 113.921 195.562 111.882C195.968 109.844 195.846 107.73 195.204 105.726L194.342 105.965C194.94 107.832 195.054 109.802 194.675 111.702C194.297 113.602 193.436 115.374 192.17 116.862C190.903 118.351 189.269 119.51 187.411 120.239C185.552 120.968 183.526 121.244 181.51 121.044L181.436 121.906Z" fill="black" stroke="black" stroke-width="2" mask="url(#path-33-inside-1_473_1300)"/>
<path d="M180.716 121.748C180.716 121.748 179.405 119.355 178.274 119.197" stroke="black"/>
<path d="M181.374 121.524C181.374 121.524 178.338 121.826 177.238 121.074" stroke="black"/>
<path d="M180.632 121.549L177.437 119.978" stroke="black"/>
<path d="M97.0957 100.516C94.7369 101.876 92.3615 102.465 90.136 102.241C87.9106 102.017 85.8889 100.986 84.2126 99.2199C82.5364 97.454 81.2461 94.9959 80.4323 92.018C79.6185 89.04 79.3009 85.6142 79.5016 81.9807L80.5001 81.5C80.313 84.8864 80.7112 88.2106 81.4697 90.986C82.2281 93.7614 83.4305 96.0522 84.9928 97.6981C86.555 99.3439 88.4393 100.305 90.5134 100.514C92.5875 100.722 94.8012 100.174 96.9996 98.9062L97.0957 100.516Z" fill="black"/>
<rect width="0.998815" height="3.98987" rx="0.499407" transform="matrix(0.728101 -0.685469 0.687995 0.725715 77 79.1762)" fill="black"/>
<rect x="78.9482" y="78.2984" width="0.999999" height="3.98512" rx="0.5" transform="rotate(-8.10017 78.9482 78.2984)" fill="black"/>
<rect width="0.999105" height="3.97387" rx="0.499552" transform="matrix(0.936097 0.351742 -0.354742 0.934964 80.8359 78)" fill="black"/>
<rect x="0.5" y="19.5" width="87" height="51" rx="2.5" fill="#E6E6E6" stroke="black"/>
<path d="M3 19.5H85C86.3807 19.5 87.5 20.6193 87.5 22V31.5H0.5V22C0.5 20.6193 1.61929 19.5 3 19.5Z" fill="#E2E0C4" stroke="black"/>
<ellipse cx="8" cy="25.5" rx="2" ry="1.5" fill="#CE6060"/>
<circle cx="14.5" cy="25.5" r="1.5" fill="#CE6060"/>
<circle cx="20.5" cy="25.5" r="1.5" fill="#CE6060"/>
<rect x="7" y="40" width="27" height="26" fill="white"/>
<rect x="39" y="45" width="42" height="21" fill="white"/>
<rect x="10" y="54" width="4" height="10" fill="#2BE0C6"/>
<rect x="18" y="49" width="4" height="15" fill="#F9DE58"/>
<rect x="26" y="43" width="5" height="21" fill="#FC7A51"/>
<rect x="78" y="60" width="4" height="36" transform="rotate(90 78 60)" fill="#6EC6EB"/>
<rect width="4" height="14" transform="matrix(0 -1 -1 0 56 58)" fill="#BABABA"/>
<rect width="4" height="29" transform="matrix(0 -1 -1 0 71 51)" fill="#FBE98E"/>
<ellipse cx="18.8261" cy="18.7693" rx="18.8261" ry="18.7693" transform="matrix(0.950887 0.309538 -0.34792 0.937524 52.3682 3.94443)" fill="#CECECE"/>
<path d="M47.7143 16.066C45.3042 19.541 44.1853 23.637 44.539 27.6899C44.8926 31.7428 46.6981 35.515 49.6627 38.395L63.7501 25.5627L47.7143 16.066Z" fill="#F9DE58"/>
<path d="M49.9714 38.4787C52.128 40.6775 54.6042 42.5005 57.5576 43.5245C60.5111 44.5486 63.613 44.433 66.6827 44.0463L63.5916 26.4375L49.9714 38.4787Z" fill="#29ABE2"/>
<path d="M67.3912 43.7406C70.4598 43.083 73.3298 41.7098 75.747 39.7425C78.1642 37.7753 80.054 35.2747 81.2489 32.4623C82.4438 29.6499 82.907 26.6125 82.5975 23.6191C82.2879 20.6257 81.2152 17.7688 79.4743 15.3014C77.7334 12.8339 75.378 10.8322 72.6169 9.47339C69.8557 8.11461 66.774 7.44075 63.6447 7.5115C60.5154 7.58225 57.4351 8.39542 54.6766 9.87899C51.9181 11.3626 49.5666 13.4707 47.8304 16.0168L63.6619 25.8441L67.3912 43.7406Z" fill="#FC7A51"/>
<rect x="7" y="34" width="15" height="4" fill="#999999"/>
<defs>
<linearGradient id="paint0_linear_473_1300" x1="123.845" y1="63.8021" x2="145.726" y2="41.4572" gradientUnits="userSpaceOnUse">
<stop stop-color="#0D6215"/>
<stop offset="0.9999" stop-color="#2E9E39"/>
</linearGradient>
</defs>
</svg>
