<svg width="230" height="187" viewBox="0 0 230 187" fill="none" xmlns="http://www.w3.org/2000/svg">
<path d="M214.12 94.4693C214.12 134.757 182.065 167.384 142.56 167.384C103.056 167.384 71 134.757 71 94.4693C71 54.182 103.056 21.5544 142.56 21.5544C182.065 21.5544 214.12 54.182 214.12 94.4693Z" fill="#FF5152" stroke="black" stroke-width="2"/>
<path d="M205.796 104.61C204.392 120.881 196.38 135.866 183.521 146.269C170.662 156.673 154.011 161.641 137.23 160.083C120.449 158.524 104.913 150.565 94.0404 137.958C83.1674 125.35 77.8477 109.126 79.2517 92.8552L142.524 98.7324L205.796 104.61Z" fill="#D21942"/>
<path d="M211.163 101.313C211.163 121.724 183.333 145.115 149.816 145.115C116.3 145.115 77.9158 121.724 77.9158 101.313C77.9158 80.9023 108.384 60.2495 141.901 60.2495C175.417 60.2495 211.163 80.9023 211.163 101.313Z" fill="#FF5152"/>
<ellipse cx="1.32296" cy="1.36877" rx="1.32296" ry="1.36877" transform="matrix(0.999771 0.0213959 -0.0198765 0.999802 190.106 99.723)" fill="#5F4036"/>
<ellipse cx="113.536" cy="87.6254" rx="9.23494" ry="10.9504" fill="#00006F"/>
<ellipse cx="1.66027" cy="1.8544" rx="1.66027" ry="1.8544" transform="matrix(0.999771 0.0213959 -0.0198765 0.999802 89.863 87.6254)" fill="#5F4036"/>
<ellipse cx="1.66027" cy="1.8544" rx="1.66027" ry="1.8544" transform="matrix(0.999771 0.0213959 -0.0198765 0.999802 87.2244 99.9445)" fill="#5F4036" fill-opacity="0.66"/>
<path d="M102.7 98.8104C102.679 99.8344 101.92 100.649 101.003 100.629C100.086 100.609 99.3596 99.7633 99.3799 98.7394C99.4003 97.7154 100.16 96.9013 101.077 96.9209C101.993 96.9405 102.72 97.7865 102.7 98.8104Z" fill="#5F4036" fill-opacity="0.66"/>
<ellipse cx="1.66027" cy="1.8544" rx="1.66027" ry="1.8544" transform="matrix(0.999771 0.0213959 -0.0198765 0.999802 179.574 113.632)" fill="#5F4036"/>
<path d="M180.819 93.1006C180.819 99.1483 176.685 104.051 171.584 104.051C166.484 104.051 162.349 99.1483 162.349 93.1006C162.349 87.0528 166.484 82.1502 171.584 82.1502C176.685 82.1502 180.819 87.0528 180.819 93.1006Z" fill="#00006F"/>
<ellipse cx="12.5367" cy="15.7369" rx="12.5367" ry="15.7369" transform="matrix(0.995935 0.090073 -0.0837205 0.996489 130.683 83.519)" fill="#00006F"/>
<path d="M149.321 108.906C149.221 111.171 145.6 112.839 141.233 112.631C136.866 112.424 133.406 110.418 133.507 108.153C133.607 105.887 137.228 104.219 141.595 104.427C145.962 104.635 149.421 106.64 149.321 108.906Z" fill="#FF7778"/>
<ellipse cx="116.175" cy="85.5722" rx="3.95783" ry="4.79078" fill="white"/>
<ellipse cx="168.946" cy="91.0474" rx="3.95783" ry="4.79078" fill="white"/>
<ellipse cx="109.578" cy="90.363" rx="2.63855" ry="2.73759" fill="#5F5EAC"/>
<ellipse cx="174.223" cy="97.2069" rx="2.63855" ry="2.73759" fill="#5F5EAC"/>
<path d="M139.789 20.6183L140.305 3.05709L154.53 1.93778L152.337 21.7782L139.789 20.6183Z" fill="#30A73C" stroke="black"/>
<path d="M95.4805 44.5949C94.4183 45.1272 93.0565 45.8096 91.206 46.723C91.3247 45.6393 91.8985 44.3965 92.8894 43.0436C94.0052 41.5204 95.6302 39.8845 97.6586 38.2173C101.715 34.8836 107.357 31.4463 113.684 28.554C120.01 25.662 127.011 23.3194 133.783 22.1687C140.558 21.0176 147.083 21.0628 152.471 22.926L152.511 22.9398H152.553C165.379 22.9398 176.877 29.759 185.185 36.6071C189.336 40.0285 192.683 43.4504 194.992 46.017C196.146 47.3001 197.041 48.369 197.647 49.1166C197.688 49.1672 197.727 49.2164 197.766 49.2641C189.269 44.5859 177.818 44.4269 165.963 46.1075C155.42 47.6022 144.51 50.5601 135.003 53.1376C133.33 53.5913 131.7 54.0331 130.123 54.4532C124.85 55.8579 120.176 57.0172 116.447 57.5628C114.582 57.8356 112.964 57.9534 111.63 57.8747C110.293 57.7957 109.269 57.5203 108.571 57.031C107.887 56.5514 107.492 55.8503 107.436 54.8508C107.379 53.8374 107.672 52.5162 108.388 50.8289C109.82 47.4557 112.901 42.7102 118.008 36.2107L118.565 35.5019L117.722 35.8226C110.575 38.5433 106.459 40.0569 103.837 41.0211C102.152 41.6405 101.084 42.0332 100.226 42.3734C98.7321 42.9654 97.8539 43.4055 95.4805 44.5949Z" fill="url(#paint0_linear_489_356)" stroke="black" stroke-width="0.5"/>
<path d="M124.184 55.1141C119.673 56.1771 114.289 57.8517 109.672 56.4829C106.699 54.348 113.553 45.1913 115.608 42.1106C117.664 39.0299 110.657 50.926 113.63 53.0609C116.716 56.7237 118.907 55.1141 124.184 55.1141Z" fill="#539059" fill-opacity="0.55"/>
<path d="M126.23 36.4874C125.201 38.0452 123.691 38.8273 122.857 38.2344C122.024 37.6415 122.182 35.898 123.211 34.3402C124.24 32.7824 125.75 32.0002 126.584 32.5932C127.418 33.1861 127.259 34.9296 126.23 36.4874Z" fill="#539059" fill-opacity="0.55"/>
<path d="M142.56 5.08707L151.795 4.12891V5.4977L142.56 8.23529V5.08707Z" fill="#115C19"/>
<ellipse cx="143.22" cy="85.5722" rx="9.89458" ry="11.6348" fill="#FF5152"/>
<ellipse cx="1.20586" cy="1.27226" rx="1.20586" ry="1.27226" transform="matrix(0.999771 0.0213959 -0.0198765 0.999802 184.828 106.789)" fill="#5F4036" fill-opacity="0.91"/>
<ellipse cx="1.66027" cy="1.8544" rx="1.66027" ry="1.8544" transform="matrix(0.999771 0.0213959 -0.0198765 0.999802 95.14 108.157)" fill="#5F4036"/>
<ellipse cx="1.7124" cy="2.01561" rx="1.7124" ry="2.01561" transform="matrix(0.999746 0.0225485 -0.0188605 0.999822 107.973 116.787)" fill="#5F4036"/>
<ellipse cx="1.66027" cy="1.8544" rx="1.66027" ry="1.8544" transform="matrix(0.999771 0.0213959 -0.0198765 0.999802 191.447 112.264)" fill="#5F4036" fill-opacity="0.6"/>
<ellipse cx="1.66027" cy="1.8544" rx="1.66027" ry="1.8544" transform="matrix(0.999771 0.0213959 -0.0198765 0.999802 195.405 104.051)" fill="#5F4036"/>
<path d="M214.12 94.4693C214.12 134.757 182.065 167.384 142.56 167.384C103.056 167.384 71 134.757 71 94.4693C71 54.182 103.056 21.5544 142.56 21.5544C182.065 21.5544 214.12 54.182 214.12 94.4693Z" fill="#FF5152" stroke="black" stroke-width="2"/>
<path d="M205.796 104.61C204.392 120.881 196.38 135.866 183.521 146.269C170.662 156.673 154.011 161.641 137.23 160.083C120.449 158.524 104.913 150.565 94.0404 137.958C83.1674 125.35 77.8477 109.126 79.2517 92.8552L142.524 98.7324L205.796 104.61Z" fill="#D21942"/>
<path d="M211.163 101.313C211.163 121.724 183.333 145.115 149.816 145.115C116.3 145.115 77.9158 121.724 77.9158 101.313C77.9158 80.9023 108.384 60.2495 141.901 60.2495C175.417 60.2495 211.163 80.9023 211.163 101.313Z" fill="#FF5152"/>
<ellipse cx="1.32296" cy="1.36877" rx="1.32296" ry="1.36877" transform="matrix(0.999771 0.0213959 -0.0198765 0.999802 190.106 99.723)" fill="#5F4036"/>
<ellipse cx="113.536" cy="87.6254" rx="9.23494" ry="10.9504" fill="#00006F"/>
<ellipse cx="1.66027" cy="1.8544" rx="1.66027" ry="1.8544" transform="matrix(0.999771 0.0213959 -0.0198765 0.999802 89.863 87.6254)" fill="#5F4036"/>
<ellipse cx="1.66027" cy="1.8544" rx="1.66027" ry="1.8544" transform="matrix(0.999771 0.0213959 -0.0198765 0.999802 87.2244 99.9445)" fill="#5F4036" fill-opacity="0.66"/>
<path d="M102.7 98.8104C102.679 99.8344 101.92 100.649 101.003 100.629C100.086 100.609 99.3596 99.7633 99.3799 98.7394C99.4003 97.7154 100.16 96.9013 101.077 96.9209C101.993 96.9405 102.72 97.7865 102.7 98.8104Z" fill="#5F4036" fill-opacity="0.66"/>
<ellipse cx="1.66027" cy="1.8544" rx="1.66027" ry="1.8544" transform="matrix(0.999771 0.0213959 -0.0198765 0.999802 179.574 113.632)" fill="#5F4036"/>
<path d="M180.819 93.1006C180.819 99.1483 176.685 104.051 171.584 104.051C166.484 104.051 162.349 99.1483 162.349 93.1006C162.349 87.0528 166.484 82.1502 171.584 82.1502C176.685 82.1502 180.819 87.0528 180.819 93.1006Z" fill="#00006F"/>
<ellipse cx="12.5367" cy="15.7369" rx="12.5367" ry="15.7369" transform="matrix(0.995935 0.090073 -0.0837205 0.996489 130.683 83.519)" fill="#00006F"/>
<path d="M149.321 108.906C149.221 111.171 145.6 112.839 141.233 112.631C136.866 112.424 133.406 110.418 133.507 108.153C133.607 105.887 137.228 104.219 141.595 104.427C145.962 104.635 149.421 106.64 149.321 108.906Z" fill="#FF7778"/>
<ellipse cx="116.175" cy="85.5722" rx="3.95783" ry="4.79078" fill="white"/>
<ellipse cx="168.946" cy="91.0474" rx="3.95783" ry="4.79078" fill="white"/>
<ellipse cx="109.578" cy="90.363" rx="2.63855" ry="2.73759" fill="#5F5EAC"/>
<ellipse cx="174.223" cy="97.2069" rx="2.63855" ry="2.73759" fill="#5F5EAC"/>
<path d="M139.789 20.6183L140.305 3.05709L154.53 1.93778L152.337 21.7782L139.789 20.6183Z" fill="#30A73C" stroke="black"/>
<path d="M95.4805 44.5949C94.4183 45.1272 93.0565 45.8096 91.206 46.723C91.3247 45.6393 91.8985 44.3965 92.8894 43.0436C94.0052 41.5204 95.6302 39.8845 97.6586 38.2173C101.715 34.8836 107.357 31.4463 113.684 28.554C120.01 25.662 127.011 23.3194 133.783 22.1687C140.558 21.0176 147.083 21.0628 152.471 22.926L152.511 22.9398H152.553C165.379 22.9398 176.877 29.759 185.185 36.6071C189.336 40.0285 192.683 43.4504 194.992 46.017C196.146 47.3001 197.041 48.369 197.647 49.1166C197.688 49.1672 197.727 49.2164 197.766 49.2641C189.269 44.5859 177.818 44.4269 165.963 46.1075C155.42 47.6022 144.51 50.5601 135.003 53.1376C133.33 53.5913 131.7 54.0331 130.123 54.4532C124.85 55.8579 120.176 57.0172 116.447 57.5628C114.582 57.8356 112.964 57.9534 111.63 57.8747C110.293 57.7957 109.269 57.5203 108.571 57.031C107.887 56.5514 107.492 55.8503 107.436 54.8508C107.379 53.8374 107.672 52.5162 108.388 50.8289C109.82 47.4557 112.901 42.7102 118.008 36.2107L118.565 35.5019L117.722 35.8226C110.575 38.5433 106.459 40.0569 103.837 41.0211C102.152 41.6405 101.084 42.0332 100.226 42.3734C98.7321 42.9654 97.8539 43.4055 95.4805 44.5949Z" fill="url(#paint1_linear_489_356)" stroke="black" stroke-width="0.5"/>
<path d="M124.184 55.1141C119.673 56.1771 114.289 57.8517 109.672 56.4829C106.699 54.348 113.553 45.1913 115.608 42.1106C117.664 39.0299 110.657 50.926 113.63 53.0609C116.716 56.7237 118.907 55.1141 124.184 55.1141Z" fill="#539059" fill-opacity="0.55"/>
<path d="M126.23 36.4874C125.201 38.0452 123.691 38.8273 122.857 38.2344C122.024 37.6415 122.182 35.898 123.211 34.3402C124.24 32.7824 125.75 32.0002 126.584 32.5932C127.418 33.1861 127.259 34.9296 126.23 36.4874Z" fill="#539059" fill-opacity="0.55"/>
<path d="M142.56 5.08707L151.795 4.12891V5.4977L142.56 8.23529V5.08707Z" fill="#115C19"/>
<ellipse cx="143.22" cy="85.5722" rx="9.89458" ry="11.6348" fill="#FF5152"/>
<ellipse cx="1.20586" cy="1.27226" rx="1.20586" ry="1.27226" transform="matrix(0.999771 0.0213959 -0.0198765 0.999802 184.828 106.789)" fill="#5F4036" fill-opacity="0.91"/>
<ellipse cx="1.66027" cy="1.8544" rx="1.66027" ry="1.8544" transform="matrix(0.999771 0.0213959 -0.0198765 0.999802 95.14 108.157)" fill="#5F4036"/>
<ellipse cx="1.7124" cy="2.01561" rx="1.7124" ry="2.01561" transform="matrix(0.999746 0.0225485 -0.0188605 0.999822 107.973 116.787)" fill="#5F4036"/>
<ellipse cx="1.66027" cy="1.8544" rx="1.66027" ry="1.8544" transform="matrix(0.999771 0.0213959 -0.0198765 0.999802 191.447 112.264)" fill="#5F4036" fill-opacity="0.6"/>
<ellipse cx="1.66027" cy="1.8544" rx="1.66027" ry="1.8544" transform="matrix(0.999771 0.0213959 -0.0198765 0.999802 195.405 104.051)" fill="#5F4036"/>
<line x1="108.466" y1="159.182" x2="99.4656" y2="182.182" stroke="black"/>
<line y1="-0.5" x2="20.2237" y2="-0.5" transform="matrix(0.14834 0.988936 -0.992404 0.123025 156 167)" stroke="black"/>
<path d="M99.7226 182.846L92.9999 180.43" stroke="black"/>
<line y1="-0.5" x2="8.05149" y2="-0.5" transform="matrix(0.993605 -0.11291 0.136218 0.990679 159 187)" stroke="black"/>
<path d="M219.546 142.74C221.62 140.549 223.107 137.889 223.874 134.994C224.642 132.098 224.667 129.055 223.948 126.132C223.23 123.208 221.788 120.494 219.751 118.225C217.714 115.957 215.143 114.205 212.264 113.122L211.815 114.285C214.499 115.294 216.895 116.927 218.794 119.041C220.692 121.155 222.035 123.685 222.705 126.41C223.375 129.135 223.351 131.97 222.636 134.669C221.921 137.368 220.536 139.846 218.602 141.888L219.546 142.74Z" fill="black"/>
<rect x="19.0318" y="27.2817" width="43" height="54" rx="4.5" transform="rotate(19.9122 19.0318 27.2817)" fill="url(#paint2_linear_489_356)" stroke="black"/>
<rect x="21.8069" y="39.8801" width="8.2" height="7.2" rx="0.6" transform="rotate(19.9122 21.8069 39.8801)" fill="#A1A3CC" stroke="black" stroke-width="0.8"/>
<rect x="16.6982" y="53.9833" width="8.2" height="7.2" rx="0.6" transform="rotate(19.9122 16.6982 53.9833)" fill="#4ABC77" stroke="black" stroke-width="0.8"/>
<rect x="11.2489" y="69.0267" width="8.2" height="7.2" rx="0.6" transform="rotate(19.9122 11.2489 69.0267)" fill="#F36E6F" stroke="black" stroke-width="0.8"/>
<rect x="31.8757" y="29.7007" width="17.2" height="5.2" rx="0.6" transform="rotate(19.9122 31.8757 29.7007)" fill="#9B4A47" stroke="black" stroke-width="0.8"/>
<rect x="23.1029" y="43.9364" width="1" height="3.36196" rx="0.5" transform="rotate(-30.6615 23.1029 43.9364)" fill="#0E0D0D"/>
<rect x="24.4762" y="46.0175" width="7.80138" height="0.874919" rx="0.437459" transform="rotate(-22.4971 24.4762 46.0175)" fill="#0E0D0D"/>
<rect x="18.9344" y="58.3802" width="1" height="3.36196" rx="0.5" transform="rotate(-30.6615 18.9344 58.3802)" fill="#0E0D0D"/>
<rect x="20.3077" y="60.4613" width="7.80138" height="0.874919" rx="0.437459" transform="rotate(-22.4971 20.3077 60.4613)" fill="#0E0D0D"/>
<rect x="13.4851" y="73.4237" width="1" height="3.36196" rx="0.5" transform="rotate(-30.6615 13.4851 73.4237)" fill="#0E0D0D"/>
<rect x="14.8584" y="75.5048" width="7.80138" height="0.874919" rx="0.437459" transform="rotate(-22.4971 14.8584 75.5048)" fill="#0E0D0D"/>
<rect x="34.9891" y="46.3569" width="16" height="1" rx="0.5" transform="rotate(19.9122 34.9891 46.3569)" fill="#0B0B0B"/>
<rect x="33.9674" y="49.1775" width="16" height="1" rx="0.5" transform="rotate(19.9122 33.9674 49.1775)" fill="#0B0B0B"/>
<rect x="30.2209" y="59.5199" width="16" height="1" rx="0.5" transform="rotate(19.9122 30.2209 59.5199)" fill="#0B0B0B"/>
<rect x="29.1992" y="62.3405" width="16" height="1" rx="0.5" transform="rotate(19.9122 29.1992 62.3405)" fill="#0B0B0B"/>
<rect x="25.1123" y="73.6231" width="16" height="1" rx="0.5" transform="rotate(19.9122 25.1123 73.6231)" fill="#0B0B0B"/>
<rect x="24.0906" y="76.4438" width="16" height="1" rx="0.5" transform="rotate(19.9122 24.0906 76.4438)" fill="#0B0B0B"/>
<circle cx="40.0978" cy="32.2536" r="3.6" transform="rotate(19.9122 40.0978 32.2536)" fill="#9B4A47" stroke="black" stroke-width="0.8"/>
<circle cx="40.0978" cy="32.2536" r="1.6" transform="rotate(19.9122 40.0978 32.2536)" fill="white" stroke="black" stroke-width="0.8"/>
<path d="M42.2233 38.1308L43.3131 35.1221L43.5856 34.3699L41.7439 33.7028L40.3428 37.4496L41.2831 37.7902L42.2233 38.1308Z" fill="#9B4A47"/>
<path d="M43.1775 35.4964L37.1601 33.3167L35.6558 32.7717L34.9746 34.6522L42.4963 37.3768L42.8369 36.4366L43.1775 35.4964Z" fill="#9B4A47"/>
<path d="M36.5819 36.0873L37.6718 33.0786L37.9442 32.3264L36.1026 31.6593L34.7015 35.4062L35.6417 35.7467L36.5819 36.0873Z" fill="#9B4A47"/>
<rect x="208.742" y="139.362" width="6.2" height="20.2" transform="rotate(-25.1433 208.742 139.362)" fill="#F4B379" stroke="black" stroke-width="0.8"/>
<circle cx="213.659" cy="144.897" r="0.5" transform="rotate(-25.1433 213.659 144.897)" fill="white" fill-opacity="0.53"/>
<rect x="213.844" y="146.467" width="1" height="5" transform="rotate(-25.1433 213.844 146.467)" fill="#FADBC0"/>
<path d="M212.91 133.649C213.337 134.559 213.342 135.403 213.067 136.103C212.79 136.807 212.215 137.4 211.421 137.773C210.626 138.146 209.802 138.209 209.084 137.972C208.37 137.737 207.724 137.193 207.297 136.284C206.43 134.437 207.068 132.414 208.574 131.708C210.08 131.001 212.043 131.803 212.91 133.649Z" fill="#ED6857" stroke="black" stroke-width="0.8"/>
<path d="M219.879 159.888C220.214 159.383 220.681 158.981 221.233 158.721C221.786 158.462 222.406 158.353 223.033 158.405L222.972 162.045L219.879 159.888Z" fill="#8B8080"/>
<path d="M218.077 158.289L222.8 162.017L222.949 156.002L220.513 157.145L218.077 158.289Z" fill="white" fill-opacity="0.32" stroke="black"/>
<rect x="207.467" y="136.646" width="6.2" height="2.2" transform="rotate(-25.1433 207.467 136.646)" fill="#F6BA39" stroke="black" stroke-width="0.8"/>
<rect width="1.33101" height="7.36131" rx="0.665505" transform="matrix(-0.00339144 0.999994 0.917015 -0.398852 212.937 144.057)" fill="black"/>
<rect width="1.17553" height="7.77342" rx="0.587765" transform="matrix(0.825939 0.56376 0.710351 -0.703848 214.106 146.233)" fill="black"/>
<rect width="1.5176" height="6.73387" rx="0.7588" transform="matrix(0.998685 -0.051257 0.439306 -0.898337 215.92 147.54)" fill="black"/>
<path d="M70.2872 100.176C67.1661 102.059 64.023 102.874 61.0783 102.564C58.1336 102.254 55.4586 100.827 53.2406 98.3814C51.0226 95.9363 49.3153 92.5328 48.2385 88.4095C47.1617 84.2862 46.7414 79.5428 47.0069 74.5118L48.3282 73.8462C48.0807 78.535 48.6075 83.1377 49.6111 86.9806C50.6147 90.8235 52.2057 93.9954 54.2728 96.2742C56.34 98.5531 58.8332 99.8836 61.5776 100.173C64.322 100.462 67.2512 99.702 70.1601 97.9471L70.2872 100.176Z" fill="black"/>
<rect width="1.35079" height="5.4098" rx="0.675396" transform="matrix(0.712374 -0.7018 0.671402 0.741093 43.697 70.6285)" fill="black"/>
<rect width="1.32443" height="5.51311" rx="0.662215" transform="matrix(0.989091 -0.147307 0.134769 0.990877 46.2749 69.4132)" fill="black"/>
<rect width="1.32975" height="5.47216" rx="0.664873" transform="matrix(0.930643 0.365928 -0.340869 0.940111 48.7726 69)" fill="black"/>
<path d="M70.2872 100.176C67.1661 102.059 64.023 102.874 61.0783 102.564C58.1336 102.254 55.4586 100.827 53.2406 98.3814C51.0226 95.9363 49.3153 92.5328 48.2385 88.4095C47.1617 84.2862 46.7414 79.5428 47.0069 74.5118L48.3282 73.8462C48.0807 78.535 48.6075 83.1377 49.6111 86.9806C50.6147 90.8235 52.2057 93.9954 54.2728 96.2742C56.34 98.5531 58.8332 99.8836 61.5776 100.173C64.322 100.462 67.2512 99.702 70.1601 97.9471L70.2872 100.176Z" fill="black"/>
<rect width="1.35079" height="5.4098" rx="0.675396" transform="matrix(0.712374 -0.7018 0.671402 0.741093 43.697 70.6285)" fill="black"/>
<rect width="1.32443" height="5.51311" rx="0.662215" transform="matrix(0.989091 -0.147307 0.134769 0.990877 46.2749 69.4132)" fill="black"/>
<rect width="1.32975" height="5.47216" rx="0.664873" transform="matrix(0.930643 0.365928 -0.340869 0.940111 48.7726 69)" fill="black"/>
<defs>
<linearGradient id="paint0_linear_489_356" x1="112.217" y1="54.0899" x2="144.362" y2="23.1079" gradientUnits="userSpaceOnUse">
<stop stop-color="#0D6215"/>
<stop offset="0.9999" stop-color="#2E9E39"/>
</linearGradient>
<linearGradient id="paint1_linear_489_356" x1="112.217" y1="54.0899" x2="144.362" y2="23.1079" gradientUnits="userSpaceOnUse">
<stop stop-color="#0D6215"/>
<stop offset="0.9999" stop-color="#2E9E39"/>
</linearGradient>
<linearGradient id="paint2_linear_489_356" x1="40.7319" y1="26.6413" x2="40.7319" y2="81.6413" gradientUnits="userSpaceOnUse">
<stop offset="0.781" stop-color="white"/>
<stop offset="0.881" stop-color="#F9F8FB"/>
<stop offset="0.926" stop-color="#EDECF3"/>
<stop offset="1" stop-color="#C8C7CD"/>
</linearGradient>
</defs>
</svg>
