<svg width="163" height="187" viewBox="0 0 163 187" fill="none" xmlns="http://www.w3.org/2000/svg">
<path d="M149.12 94.4694C149.12 134.757 117.065 167.384 77.5602 167.384C38.056 167.384 6 134.757 6 94.4694C6 54.182 38.056 21.5545 77.5602 21.5545C117.065 21.5545 149.12 54.182 149.12 94.4694Z" fill="#FF5152" stroke="black" stroke-width="2"/>
<path d="M140.796 104.61C139.392 120.881 131.38 135.866 118.521 146.269C105.662 156.673 89.011 161.641 72.2302 160.083C55.4494 158.524 39.9135 150.565 29.0405 137.958C18.1674 125.35 12.8478 109.126 14.2518 92.8552L77.524 98.7324L140.796 104.61Z" fill="#D21942"/>
<path d="M146.163 101.313C146.163 121.724 118.333 145.115 84.8163 145.115C51.3 145.115 12.9157 121.724 12.9157 101.313C12.9157 80.9023 43.3843 60.2495 76.9007 60.2495C110.417 60.2495 146.163 80.9023 146.163 101.313Z" fill="#FF5152"/>
<ellipse cx="1.32296" cy="1.36877" rx="1.32296" ry="1.36877" transform="matrix(0.999771 0.0213959 -0.0198765 0.999802 125.106 99.723)" fill="#5F4036"/>
<ellipse cx="48.5361" cy="87.6254" rx="9.23494" ry="10.9504" fill="#00006F"/>
<ellipse cx="1.66027" cy="1.8544" rx="1.66027" ry="1.8544" transform="matrix(0.999771 0.0213959 -0.0198765 0.999802 24.863 87.6254)" fill="#5F4036"/>
<ellipse cx="1.66027" cy="1.8544" rx="1.66027" ry="1.8544" transform="matrix(0.999771 0.0213959 -0.0198765 0.999802 22.2244 99.9445)" fill="#5F4036" fill-opacity="0.66"/>
<path d="M37.6998 98.8104C37.6794 99.8344 36.9197 100.649 36.003 100.629C35.0863 100.609 34.3596 99.7633 34.38 98.7394C34.4003 97.7154 35.16 96.9013 36.0767 96.9209C36.9935 96.9405 37.7201 97.7865 37.6998 98.8104Z" fill="#5F4036" fill-opacity="0.66"/>
<ellipse cx="1.66027" cy="1.8544" rx="1.66027" ry="1.8544" transform="matrix(0.999771 0.0213959 -0.0198765 0.999802 114.574 113.632)" fill="#5F4036"/>
<path d="M115.819 93.1006C115.819 99.1483 111.685 104.051 106.584 104.051C101.484 104.051 97.3494 99.1483 97.3494 93.1006C97.3494 87.0528 101.484 82.1502 106.584 82.1502C111.685 82.1502 115.819 87.0528 115.819 93.1006Z" fill="#00006F"/>
<ellipse cx="12.5367" cy="15.7369" rx="12.5367" ry="15.7369" transform="matrix(0.995935 0.090073 -0.0837205 0.996489 65.6832 83.519)" fill="#00006F"/>
<path d="M84.3213 108.906C84.2211 111.171 80.5997 112.839 76.2326 112.631C71.8655 112.424 68.4064 110.418 68.5066 108.153C68.6067 105.887 72.2282 104.219 76.5953 104.427C80.9624 104.635 84.4214 106.64 84.3213 108.906Z" fill="#FF7778"/>
<ellipse cx="51.1748" cy="85.5722" rx="3.95783" ry="4.79078" fill="white"/>
<ellipse cx="103.946" cy="91.0474" rx="3.95783" ry="4.79078" fill="white"/>
<ellipse cx="44.5783" cy="90.363" rx="2.63855" ry="2.73759" fill="#5F5EAC"/>
<ellipse cx="109.223" cy="97.2069" rx="2.63855" ry="2.73759" fill="#5F5EAC"/>
<path d="M74.7888 20.6183L75.305 3.05709L89.53 1.93778L87.3367 21.7782L74.7888 20.6183Z" fill="#30A73C" stroke="black"/>
<path d="M30.4805 44.5949C29.4183 45.1272 28.0565 45.8096 26.206 46.723C26.3247 45.6393 26.8985 44.3965 27.8894 43.0436C29.0052 41.5205 30.6302 39.8846 32.6586 38.2174C36.7145 34.8836 42.3567 31.4463 48.6837 28.554C55.01 25.662 62.0113 23.3194 68.783 22.1688C75.5577 21.0176 82.0834 21.0628 87.4709 22.926L87.5106 22.9398H87.5526C100.379 22.9398 111.877 29.759 120.185 36.6071C124.336 40.0285 127.683 43.4504 129.992 46.017C131.146 47.3001 132.041 48.369 132.647 49.1166C132.688 49.1672 132.727 49.2164 132.766 49.2641C124.269 44.5859 112.818 44.427 100.963 46.1075C90.4203 47.6022 79.5103 50.5601 70.003 53.1376C68.3298 53.5913 66.7 54.0331 65.1233 54.4532C59.8501 55.858 55.1761 57.0172 51.4469 57.5628C49.5823 57.8356 47.9639 57.9534 46.6304 57.8747C45.2931 57.7957 44.2695 57.5203 43.5712 57.031C42.8867 56.5514 42.4917 55.8503 42.4358 54.8508C42.3792 53.8374 42.6723 52.5162 43.3884 50.8289C44.8199 47.4557 47.9012 42.7102 53.0078 36.2107L53.5647 35.502L52.7223 35.8226C45.5748 38.5434 41.4587 40.057 38.8368 41.0211C37.1522 41.6406 36.0845 42.0332 35.2259 42.3734C33.7321 42.9654 32.8539 43.4055 30.4805 44.5949Z" fill="url(#paint0_linear_474_1719)" stroke="black" stroke-width="0.5"/>
<path d="M59.1838 55.1141C54.6729 56.1771 49.2892 57.8517 44.6718 56.4829C41.6991 54.348 48.5531 45.1913 50.6085 42.1106C52.6638 39.0299 45.6569 50.926 48.6295 53.0609C51.7164 56.7237 53.9067 55.1141 59.1838 55.1141Z" fill="#539059" fill-opacity="0.55"/>
<path d="M61.2303 36.4874C60.2014 38.0452 58.6912 38.8273 57.8574 38.2344C57.0235 37.6415 57.1817 35.898 58.2107 34.3402C59.2397 32.7824 60.7498 32.0002 61.5837 32.5932C62.4175 33.1861 62.2593 34.9296 61.2303 36.4874Z" fill="#539059" fill-opacity="0.55"/>
<path d="M77.5603 5.08709L86.7952 4.12892V5.49772L77.5603 8.2353V5.08709Z" fill="#115C19"/>
<ellipse cx="78.2199" cy="85.5722" rx="9.89458" ry="11.6348" fill="#FF5152"/>
<ellipse cx="1.20586" cy="1.27226" rx="1.20586" ry="1.27226" transform="matrix(0.999771 0.0213959 -0.0198765 0.999802 119.828 106.789)" fill="#5F4036" fill-opacity="0.91"/>
<ellipse cx="1.66027" cy="1.8544" rx="1.66027" ry="1.8544" transform="matrix(0.999771 0.0213959 -0.0198765 0.999802 30.14 108.157)" fill="#5F4036"/>
<ellipse cx="1.7124" cy="2.01561" rx="1.7124" ry="2.01561" transform="matrix(0.999746 0.0225485 -0.0188605 0.999822 42.973 116.787)" fill="#5F4036"/>
<ellipse cx="1.66027" cy="1.8544" rx="1.66027" ry="1.8544" transform="matrix(0.999771 0.0213959 -0.0198765 0.999802 126.447 112.264)" fill="#5F4036" fill-opacity="0.6"/>
<ellipse cx="1.66027" cy="1.8544" rx="1.66027" ry="1.8544" transform="matrix(0.999771 0.0213959 -0.0198765 0.999802 130.405 104.051)" fill="#5F4036"/>
<path d="M149.12 94.4694C149.12 134.757 117.065 167.384 77.5602 167.384C38.056 167.384 6 134.757 6 94.4694C6 54.182 38.056 21.5545 77.5602 21.5545C117.065 21.5545 149.12 54.182 149.12 94.4694Z" fill="#FF5152" stroke="black" stroke-width="2"/>
<path d="M140.796 104.61C139.392 120.881 131.38 135.866 118.521 146.269C105.662 156.673 89.011 161.641 72.2302 160.083C55.4494 158.524 39.9135 150.565 29.0405 137.958C18.1674 125.35 12.8478 109.126 14.2518 92.8552L77.524 98.7324L140.796 104.61Z" fill="#D21942"/>
<path d="M146.163 101.313C146.163 121.724 118.333 145.115 84.8163 145.115C51.3 145.115 12.9157 121.724 12.9157 101.313C12.9157 80.9023 43.3843 60.2495 76.9007 60.2495C110.417 60.2495 146.163 80.9023 146.163 101.313Z" fill="#FF5152"/>
<ellipse cx="1.32296" cy="1.36877" rx="1.32296" ry="1.36877" transform="matrix(0.999771 0.0213959 -0.0198765 0.999802 125.106 99.723)" fill="#5F4036"/>
<ellipse cx="48.5361" cy="87.6254" rx="9.23494" ry="10.9504" fill="#00006F"/>
<ellipse cx="1.66027" cy="1.8544" rx="1.66027" ry="1.8544" transform="matrix(0.999771 0.0213959 -0.0198765 0.999802 24.863 87.6254)" fill="#5F4036"/>
<ellipse cx="1.66027" cy="1.8544" rx="1.66027" ry="1.8544" transform="matrix(0.999771 0.0213959 -0.0198765 0.999802 22.2244 99.9445)" fill="#5F4036" fill-opacity="0.66"/>
<path d="M37.6998 98.8104C37.6794 99.8344 36.9197 100.649 36.003 100.629C35.0863 100.609 34.3596 99.7633 34.38 98.7394C34.4003 97.7154 35.16 96.9013 36.0767 96.9209C36.9935 96.9405 37.7201 97.7865 37.6998 98.8104Z" fill="#5F4036" fill-opacity="0.66"/>
<ellipse cx="1.66027" cy="1.8544" rx="1.66027" ry="1.8544" transform="matrix(0.999771 0.0213959 -0.0198765 0.999802 114.574 113.632)" fill="#5F4036"/>
<path d="M115.819 93.1006C115.819 99.1483 111.685 104.051 106.584 104.051C101.484 104.051 97.3494 99.1483 97.3494 93.1006C97.3494 87.0528 101.484 82.1502 106.584 82.1502C111.685 82.1502 115.819 87.0528 115.819 93.1006Z" fill="#00006F"/>
<ellipse cx="12.5367" cy="15.7369" rx="12.5367" ry="15.7369" transform="matrix(0.995935 0.090073 -0.0837205 0.996489 65.6832 83.519)" fill="#00006F"/>
<path d="M84.3213 108.906C84.2211 111.171 80.5997 112.839 76.2326 112.631C71.8655 112.424 68.4064 110.418 68.5066 108.153C68.6067 105.887 72.2282 104.219 76.5953 104.427C80.9624 104.635 84.4214 106.64 84.3213 108.906Z" fill="#FF7778"/>
<ellipse cx="51.1748" cy="85.5722" rx="3.95783" ry="4.79078" fill="white"/>
<ellipse cx="103.946" cy="91.0474" rx="3.95783" ry="4.79078" fill="white"/>
<ellipse cx="44.5783" cy="90.363" rx="2.63855" ry="2.73759" fill="#5F5EAC"/>
<ellipse cx="109.223" cy="97.2069" rx="2.63855" ry="2.73759" fill="#5F5EAC"/>
<path d="M74.7888 20.6183L75.305 3.05709L89.53 1.93778L87.3367 21.7782L74.7888 20.6183Z" fill="#30A73C" stroke="black"/>
<path d="M30.4805 44.5949C29.4183 45.1272 28.0565 45.8096 26.206 46.723C26.3247 45.6393 26.8985 44.3965 27.8894 43.0436C29.0052 41.5205 30.6302 39.8846 32.6586 38.2174C36.7145 34.8836 42.3567 31.4463 48.6837 28.554C55.01 25.662 62.0113 23.3194 68.783 22.1688C75.5577 21.0176 82.0834 21.0628 87.4709 22.926L87.5106 22.9398H87.5526C100.379 22.9398 111.877 29.759 120.185 36.6071C124.336 40.0285 127.683 43.4504 129.992 46.017C131.146 47.3001 132.041 48.369 132.647 49.1166C132.688 49.1672 132.727 49.2164 132.766 49.2641C124.269 44.5859 112.818 44.427 100.963 46.1075C90.4203 47.6022 79.5103 50.5601 70.003 53.1376C68.3298 53.5913 66.7 54.0331 65.1233 54.4532C59.8501 55.858 55.1761 57.0172 51.4469 57.5628C49.5823 57.8356 47.9639 57.9534 46.6304 57.8747C45.2931 57.7957 44.2695 57.5203 43.5712 57.031C42.8867 56.5514 42.4917 55.8503 42.4358 54.8508C42.3792 53.8374 42.6723 52.5162 43.3884 50.8289C44.8199 47.4557 47.9012 42.7102 53.0078 36.2107L53.5647 35.502L52.7223 35.8226C45.5748 38.5434 41.4587 40.057 38.8368 41.0211C37.1522 41.6406 36.0845 42.0332 35.2259 42.3734C33.7321 42.9654 32.8539 43.4055 30.4805 44.5949Z" fill="url(#paint1_linear_474_1719)" stroke="black" stroke-width="0.5"/>
<path d="M59.1838 55.1141C54.6729 56.1771 49.2892 57.8517 44.6718 56.4829C41.6991 54.348 48.5531 45.1913 50.6085 42.1106C52.6638 39.0299 45.6569 50.926 48.6295 53.0609C51.7164 56.7237 53.9067 55.1141 59.1838 55.1141Z" fill="#539059" fill-opacity="0.55"/>
<path d="M61.2303 36.4874C60.2014 38.0452 58.6912 38.8273 57.8574 38.2344C57.0235 37.6415 57.1817 35.898 58.2107 34.3402C59.2397 32.7824 60.7498 32.0002 61.5837 32.5932C62.4175 33.1861 62.2593 34.9296 61.2303 36.4874Z" fill="#539059" fill-opacity="0.55"/>
<path d="M77.5603 5.08709L86.7952 4.12892V5.49772L77.5603 8.2353V5.08709Z" fill="#115C19"/>
<ellipse cx="78.2199" cy="85.5722" rx="9.89458" ry="11.6348" fill="#FF5152"/>
<ellipse cx="1.20586" cy="1.27226" rx="1.20586" ry="1.27226" transform="matrix(0.999771 0.0213959 -0.0198765 0.999802 119.828 106.789)" fill="#5F4036" fill-opacity="0.91"/>
<ellipse cx="1.66027" cy="1.8544" rx="1.66027" ry="1.8544" transform="matrix(0.999771 0.0213959 -0.0198765 0.999802 30.14 108.157)" fill="#5F4036"/>
<path d="M45.4239 109.077C45.4029 110.19 44.6194 111.075 43.674 111.054C42.7285 111.033 41.979 110.113 42 109C42.021 107.887 42.8045 107.002 43.75 107.023C44.6955 107.045 45.4449 107.964 45.4239 109.077Z" fill="#5F4036"/>
<ellipse cx="1.66027" cy="1.8544" rx="1.66027" ry="1.8544" transform="matrix(0.999771 0.0213959 -0.0198765 0.999802 126.447 112.264)" fill="#5F4036" fill-opacity="0.6"/>
<ellipse cx="1.66027" cy="1.8544" rx="1.66027" ry="1.8544" transform="matrix(0.999771 0.0213959 -0.0198765 0.999802 130.405 104.051)" fill="#5F4036"/>
<line x1="43.4656" y1="159.182" x2="34.4656" y2="182.182" stroke="black"/>
<line y1="-0.5" x2="20.2237" y2="-0.5" transform="matrix(0.14834 0.988936 -0.992404 0.123025 91 167)" stroke="black"/>
<path d="M34.7226 182.846L28 180.43" stroke="black"/>
<line y1="-0.5" x2="8.05149" y2="-0.5" transform="matrix(0.993605 -0.11291 0.136218 0.990679 94 187)" stroke="black"/>
<path d="M5.4839 104.995C2.22218 108.158 0.354928 111.734 0.0458164 115.41C-0.263295 119.086 0.995172 122.749 3.71091 126.079C6.42664 129.409 10.5167 132.304 15.6227 134.51C20.7286 136.716 26.6945 138.165 32.9975 138.732L33.4058 137.22C27.5315 136.692 21.9714 135.341 17.2127 133.285C12.4541 131.229 8.64218 128.531 6.11116 125.427C3.58014 122.324 2.40727 118.91 2.69535 115.484C2.98344 112.058 4.72369 108.725 7.76356 105.778L5.4839 104.995Z" fill="black"/>
<path d="M154.546 142.74C156.62 140.549 158.107 137.889 158.874 134.994C159.642 132.098 159.667 129.055 158.948 126.132C158.23 123.208 156.788 120.494 154.751 118.225C152.714 115.957 150.143 114.205 147.264 113.122L146.815 114.285C149.499 115.294 151.895 116.927 153.794 119.041C155.692 121.155 157.035 123.685 157.705 126.41C158.375 129.135 158.351 131.97 157.636 134.669C156.921 137.368 155.536 139.846 153.602 141.888L154.546 142.74Z" fill="black"/>
<path d="M154.362 142.598C154.362 142.598 150.464 141.905 149.326 143.01" stroke="black"/>
<path d="M154.656 141.673C154.656 141.673 152.449 145.288 150.644 145.827" stroke="black"/>
<path d="M154.059 142.512L149.533 144.631" stroke="black"/>
<path d="M34.1594 124L55.1662 126.243L47.6613 150.284L35.2727 149.241L34.1594 124Z" fill="#F0EFEF" fill-opacity="0.81"/>
<path d="M35.851 125.94L53.0521 127.777L46.7332 148.824L36.587 147.986L35.851 125.94Z" fill="#F0EFEF" fill-opacity="0.81"/>
<path d="M36.0309 136.875L50.2467 136.874L46.8004 148.706L36.4638 147.918L36.0309 136.875Z" fill="#68CDE1" fill-opacity="0.81"/>
<path d="M36.0452 130.578L52.8316 129.776L50.3068 136.876L36.0389 136.888L36.0452 130.578Z" fill="#68CDE1" fill-opacity="0.32"/>
<rect width="1.35079" height="5.4098" rx="0.675396" transform="matrix(0.421713 0.90673 -0.923568 0.383434 37.3724 135)" fill="black"/>
<rect width="1.32443" height="5.51311" rx="0.662215" transform="matrix(-0.193514 0.981098 -0.978568 -0.205924 37.6512 137.836)" fill="black"/>
<rect width="1.32975" height="5.47216" rx="0.664873" transform="matrix(-0.657291 0.753637 -0.770973 -0.636868 37.2015 140.328)" fill="black"/>
<path d="M50.7781 120.377C51.2896 120.169 51.8731 120.415 52.0816 120.926C52.29 121.437 52.0444 122.021 51.533 122.229C51.0215 122.438 48.5859 122.947 48.3775 122.436C48.169 121.924 50.2667 120.586 50.7781 120.377Z" fill="url(#paint2_linear_474_1719)"/>
<path d="M57.7781 121.377C58.2896 121.169 58.8731 121.415 59.0816 121.926C59.29 122.437 59.0444 123.021 58.533 123.229C58.0215 123.438 55.5859 123.947 55.3775 123.436C55.169 122.924 57.2667 121.586 57.7781 121.377Z" fill="url(#paint3_linear_474_1719)"/>
<path d="M38.2534 119.163C37.8232 118.787 37.1444 118.86 36.7372 119.326C36.3301 119.792 36.3487 120.474 36.7789 120.85C37.209 121.226 39.4456 122.514 39.8527 122.048C40.2599 121.582 38.6835 119.539 38.2534 119.163Z" fill="url(#paint4_linear_474_1719)"/>
<path d="M31.1312 117.717C30.7463 117.321 30.1132 117.312 29.7172 117.697C29.3211 118.082 29.312 118.715 29.6969 119.111C30.0818 119.507 32.1087 120.95 32.5048 120.566C32.9008 120.181 31.5161 118.113 31.1312 117.717Z" fill="url(#paint5_linear_474_1719)"/>
<defs>
<linearGradient id="paint0_linear_474_1719" x1="47.2168" y1="54.0899" x2="79.3617" y2="23.1079" gradientUnits="userSpaceOnUse">
<stop stop-color="#0D6215"/>
<stop offset="0.9999" stop-color="#2E9E39"/>
</linearGradient>
<linearGradient id="paint1_linear_474_1719" x1="47.2168" y1="54.0899" x2="79.3617" y2="23.1079" gradientUnits="userSpaceOnUse">
<stop stop-color="#0D6215"/>
<stop offset="0.9999" stop-color="#2E9E39"/>
</linearGradient>
<linearGradient id="paint2_linear_474_1719" x1="49.8521" y1="120.755" x2="50.607" y2="122.607" gradientUnits="userSpaceOnUse">
<stop stop-color="#B2E2FF"/>
<stop offset="1" stop-color="#56AFCA"/>
</linearGradient>
<linearGradient id="paint3_linear_474_1719" x1="56.8521" y1="121.755" x2="57.607" y2="123.607" gradientUnits="userSpaceOnUse">
<stop stop-color="#A4DEFD"/>
<stop offset="1" stop-color="#28BDF4"/>
</linearGradient>
<linearGradient id="paint4_linear_474_1719" x1="37.5577" y1="121.531" x2="39.0322" y2="119.844" gradientUnits="userSpaceOnUse">
<stop stop-color="#8ED7FF"/>
<stop offset="1" stop-color="#56BCF2"/>
</linearGradient>
<linearGradient id="paint5_linear_474_1719" x1="29.7172" y1="117.697" x2="32.5048" y2="120.566" gradientUnits="userSpaceOnUse">
<stop stop-color="#9EE8FF"/>
<stop offset="1" stop-color="#22CAF4"/>
</linearGradient>
</defs>
</svg>
