<svg width="163" height="185" viewBox="0 0 163 185" fill="none" xmlns="http://www.w3.org/2000/svg">
<path d="M149.12 94.4694C149.12 134.757 117.065 167.384 77.5602 167.384C38.056 167.384 6 134.757 6 94.4694C6 54.182 38.056 21.5545 77.5602 21.5545C117.065 21.5545 149.12 54.182 149.12 94.4694Z" fill="#FF5152" stroke="black" stroke-width="2"/>
<path d="M140.796 104.61C139.392 120.881 131.38 135.866 118.521 146.269C105.662 156.673 89.011 161.641 72.2301 160.083C55.4493 158.524 39.9135 150.565 29.0404 137.958C18.1674 125.35 12.8477 109.126 14.2517 92.8552L77.524 98.7324L140.796 104.61Z" fill="#D21942"/>
<path d="M146.163 101.313C146.163 121.724 118.333 145.115 84.8164 145.115C51.3 145.115 12.9158 121.724 12.9158 101.313C12.9158 80.9023 43.3843 60.2495 76.9007 60.2495C110.417 60.2495 146.163 80.9023 146.163 101.313Z" fill="#FF5152"/>
<ellipse cx="1.32296" cy="1.36877" rx="1.32296" ry="1.36877" transform="matrix(0.999771 0.0213959 -0.0198765 0.999802 125.106 99.723)" fill="#5F4036"/>
<ellipse cx="48.5362" cy="87.6254" rx="9.23494" ry="10.9504" fill="#00006F"/>
<ellipse cx="1.66027" cy="1.8544" rx="1.66027" ry="1.8544" transform="matrix(0.999771 0.0213959 -0.0198765 0.999802 24.863 87.6254)" fill="#5F4036"/>
<ellipse cx="1.66027" cy="1.8544" rx="1.66027" ry="1.8544" transform="matrix(0.999771 0.0213959 -0.0198765 0.999802 22.2244 99.9445)" fill="#5F4036" fill-opacity="0.66"/>
<path d="M37.6997 98.8104C37.6793 99.8344 36.9197 100.649 36.003 100.629C35.0862 100.609 34.3596 99.7633 34.3799 98.7394C34.4003 97.7154 35.1599 96.9013 36.0767 96.9209C36.9934 96.9405 37.7201 97.7865 37.6997 98.8104Z" fill="#5F4036" fill-opacity="0.66"/>
<ellipse cx="1.66027" cy="1.8544" rx="1.66027" ry="1.8544" transform="matrix(0.999771 0.0213959 -0.0198765 0.999802 114.574 113.632)" fill="#5F4036"/>
<path d="M115.819 93.1006C115.819 99.1483 111.685 104.051 106.584 104.051C101.484 104.051 97.3494 99.1483 97.3494 93.1006C97.3494 87.0528 101.484 82.1502 106.584 82.1502C111.685 82.1502 115.819 87.0528 115.819 93.1006Z" fill="#00006F"/>
<ellipse cx="12.5367" cy="15.7369" rx="12.5367" ry="15.7369" transform="matrix(0.995935 0.090073 -0.0837205 0.996489 65.6831 83.519)" fill="#00006F"/>
<path d="M84.3213 108.906C84.2212 111.171 80.5998 112.839 76.2326 112.631C71.8655 112.424 68.4065 110.418 68.5066 108.153C68.6068 105.887 72.2282 104.219 76.5953 104.427C80.9624 104.635 84.4215 106.64 84.3213 108.906Z" fill="#FF7778"/>
<ellipse cx="47.9578" cy="91.7908" rx="3.95783" ry="4.79078" fill="white"/>
<ellipse cx="106.958" cy="97.7908" rx="3.95783" ry="4.79078" fill="white"/>
<ellipse cx="45.6386" cy="81.7376" rx="2.63855" ry="2.73759" fill="#5F5EAC"/>
<ellipse cx="106.639" cy="88.7376" rx="2.63855" ry="2.73759" fill="#5F5EAC"/>
<path d="M74.7888 20.6183L75.305 3.05709L89.53 1.93778L87.3367 21.7782L74.7888 20.6183Z" fill="#30A73C" stroke="black"/>
<path d="M30.4805 44.5949C29.4183 45.1272 28.0565 45.8096 26.206 46.723C26.3247 45.6393 26.8985 44.3965 27.8894 43.0436C29.0052 41.5205 30.6302 39.8846 32.6586 38.2174C36.7145 34.8836 42.3567 31.4463 48.6837 28.554C55.01 25.662 62.0113 23.3194 68.783 22.1688C75.5577 21.0176 82.0834 21.0628 87.4709 22.926L87.5106 22.9398H87.5526C100.379 22.9398 111.877 29.759 120.185 36.6071C124.336 40.0285 127.683 43.4504 129.992 46.017C131.146 47.3001 132.041 48.369 132.647 49.1166C132.688 49.1672 132.727 49.2164 132.766 49.2641C124.269 44.5859 112.818 44.427 100.963 46.1075C90.4203 47.6022 79.5103 50.5601 70.003 53.1376C68.3298 53.5913 66.7 54.0331 65.1233 54.4532C59.8501 55.858 55.1761 57.0172 51.4469 57.5628C49.5823 57.8356 47.9639 57.9534 46.6304 57.8747C45.2931 57.7957 44.2695 57.5203 43.5712 57.031C42.8867 56.5514 42.4917 55.8503 42.4358 54.8508C42.3792 53.8374 42.6723 52.5162 43.3884 50.8289C44.8199 47.4557 47.9012 42.7102 53.0078 36.2107L53.5647 35.502L52.7223 35.8226C45.5748 38.5434 41.4587 40.057 38.8368 41.0211C37.1522 41.6406 36.0845 42.0332 35.2259 42.3734C33.7321 42.9654 32.8539 43.4055 30.4805 44.5949Z" fill="url(#paint0_linear_474_1491)" stroke="black" stroke-width="0.5"/>
<path d="M59.1838 55.1141C54.6729 56.1771 49.2892 57.8517 44.6718 56.4829C41.6991 54.348 48.5531 45.1913 50.6085 42.1106C52.6638 39.0299 45.6569 50.926 48.6295 53.0609C51.7164 56.7237 53.9067 55.1141 59.1838 55.1141Z" fill="#539059" fill-opacity="0.55"/>
<path d="M61.2302 36.4874C60.2012 38.0452 58.6911 38.8273 57.8572 38.2344C57.0234 37.6415 57.1816 35.898 58.2106 34.3402C59.2396 32.7824 60.7497 32.0003 61.5836 32.5932C62.4174 33.1861 62.2592 34.9296 61.2302 36.4874Z" fill="#539059" fill-opacity="0.55"/>
<path d="M77.5603 5.08709L86.7952 4.12892V5.49772L77.5603 8.2353V5.08709Z" fill="#115C19"/>
<ellipse cx="78.2198" cy="85.5722" rx="9.89458" ry="11.6348" fill="#FF5152"/>
<ellipse cx="1.20586" cy="1.27226" rx="1.20586" ry="1.27226" transform="matrix(0.999771 0.0213959 -0.0198765 0.999802 119.828 106.788)" fill="#5F4036" fill-opacity="0.91"/>
<ellipse cx="1.66027" cy="1.8544" rx="1.66027" ry="1.8544" transform="matrix(0.999771 0.0213959 -0.0198765 0.999802 30.1401 108.157)" fill="#5F4036"/>
<ellipse cx="1.7124" cy="2.01561" rx="1.7124" ry="2.01561" transform="matrix(0.999746 0.0225485 -0.0188605 0.999822 42.9729 116.787)" fill="#5F4036"/>
<ellipse cx="1.66027" cy="1.8544" rx="1.66027" ry="1.8544" transform="matrix(0.999771 0.0213959 -0.0198765 0.999802 126.447 112.264)" fill="#5F4036" fill-opacity="0.6"/>
<ellipse cx="1.66027" cy="1.8544" rx="1.66027" ry="1.8544" transform="matrix(0.999771 0.0213959 -0.0198765 0.999802 130.405 104.051)" fill="#5F4036"/>
<line x1="43.4656" y1="157.182" x2="34.4656" y2="180.182" stroke="black"/>
<line y1="-0.5" x2="20.2237" y2="-0.5" transform="matrix(0.14834 0.988936 -0.992404 0.123025 91 165)" stroke="black"/>
<path d="M34.7227 180.846L28.0001 178.43" stroke="black"/>
<line y1="-0.5" x2="8.05149" y2="-0.5" transform="matrix(0.993605 -0.11291 0.136218 0.990679 94 185)" stroke="black"/>
<path d="M4.53337 103C1.67895 106.597 0.119124 110.688 0.00655672 114.872C-0.10601 119.057 1.23254 123.191 3.8912 126.871C6.54985 130.551 10.4375 133.651 15.1736 135.867C19.9097 138.082 25.4224 138.827 31 139V137.868C25.8018 137.707 20.7483 136.537 16.3344 134.472C11.9204 132.407 8.29721 129.518 5.81939 126.088C3.34157 122.658 2.09406 118.805 2.19897 114.905C2.30388 111.005 3.75762 107.193 6.41788 103.841L4.53337 103Z" fill="black"/>
<g filter="url(#filter0_d_474_1491)">
<rect x="49.8553" y="130.992" width="52.5867" height="18.2556" transform="rotate(1.43272 49.8553 130.992)" fill="url(#paint1_linear_474_1491)" stroke="#141313" stroke-width="1.2"/>
<path d="M36.4712 130.65L48.8086 130.958L48.3522 149.208L36.0147 148.9C35.2418 148.88 34.6309 148.238 34.6502 147.465L35.0366 132.014C35.056 131.241 35.6982 130.63 36.4712 130.65Z" fill="url(#paint2_linear_474_1491)" stroke="#141313" stroke-width="1.2"/>
<path d="M103.473 132.34L115.81 132.648C116.583 132.667 117.194 133.31 117.175 134.083L116.789 149.533C116.769 150.306 116.127 150.917 115.354 150.898L103.017 150.589L103.473 132.34Z" fill="url(#paint3_linear_474_1491)" stroke="#141313" stroke-width="1.2"/>
</g>
<g filter="url(#filter1_d_474_1491)">
<rect x="49.5723" y="131.671" width="53.5" height="18.9556" transform="rotate(1.43272 49.5723 131.671)" fill="url(#paint4_linear_474_1491)" stroke="black" stroke-width="0.5"/>
<path d="M36.4795 131.336L49.2255 131.655L48.7515 150.605L36.0055 150.286C35.0393 150.262 34.2756 149.459 34.2998 148.493L34.6862 133.042C34.7104 132.076 35.5133 131.312 36.4795 131.336Z" fill="url(#paint5_linear_474_1491)" stroke="black" stroke-width="0.5"/>
<path d="M103.402 133.024L116.148 133.343C117.115 133.367 117.878 134.17 117.854 135.136L117.468 150.587C117.443 151.553 116.641 152.317 115.674 152.292L102.928 151.974L103.402 133.024Z" fill="url(#paint6_linear_474_1491)" stroke="black" stroke-width="0.5"/>
</g>
<rect width="1.35079" height="5.4098" rx="0.675396" transform="matrix(0.421713 0.90673 -0.923568 0.383434 35.3726 136)" fill="black"/>
<rect width="1.32443" height="5.51311" rx="0.662215" transform="matrix(-0.193514 0.981098 -0.978568 -0.205924 35.6514 138.836)" fill="black"/>
<rect width="1.32975" height="5.47216" rx="0.664873" transform="matrix(-0.657291 0.753637 -0.770973 -0.636868 35.2017 141.328)" fill="black"/>
<rect width="1.17742" height="6.10961" rx="0.58871" transform="matrix(-0.56994 0.821686 0.963368 0.268182 115.671 140)" fill="black"/>
<rect width="1.06987" height="6.41835" rx="0.534937" transform="matrix(0.282205 0.959354 0.990191 -0.139718 115.343 142.24)" fill="black"/>
<rect width="1.29875" height="5.68143" rx="0.649376" transform="matrix(0.792784 0.609502 0.874774 -0.484531 115.873 144.208)" fill="black"/>
<path d="M135.105 140.367C130.884 142.321 126.184 143.116 121.39 142.685L121.385 141.447C125.976 141.839 130.485 141.068 134.544 139.19C138.765 137.236 142.363 134.146 145.024 130.195C147.684 126.245 149.325 121.557 149.809 116.545C150.267 111.807 150.28 106.274 148.703 101.478L148.928 101.478C150.713 106.505 151.387 111.794 150.894 116.901C150.39 122.12 148.682 126.985 145.929 131.074C143.175 135.163 139.458 138.352 135.105 140.367Z" fill="black" stroke="black"/>
<defs>
<filter id="filter0_d_474_1491" x="30.0498" y="130.049" width="91.7256" height="29.4491" filterUnits="userSpaceOnUse" color-interpolation-filters="sRGB">
<feFlood flood-opacity="0" result="BackgroundImageFix"/>
<feColorMatrix in="SourceAlpha" type="matrix" values="0 0 0 0 0 0 0 0 0 0 0 0 0 0 0 0 0 0 127 0" result="hardAlpha"/>
<feOffset dy="4"/>
<feGaussianBlur stdDeviation="2"/>
<feComposite in2="hardAlpha" operator="out"/>
<feColorMatrix type="matrix" values="0 0 0 0 0 0 0 0 0 0 0 0 0 0 0 0 0 0 0.25 0"/>
<feBlend mode="normal" in2="BackgroundImageFix" result="effect1_dropShadow_474_1491"/>
<feBlend mode="normal" in="SourceGraphic" in2="effect1_dropShadow_474_1491" result="shape"/>
</filter>
<filter id="filter1_d_474_1491" x="30.0493" y="131.086" width="92.0554" height="29.4573" filterUnits="userSpaceOnUse" color-interpolation-filters="sRGB">
<feFlood flood-opacity="0" result="BackgroundImageFix"/>
<feColorMatrix in="SourceAlpha" type="matrix" values="0 0 0 0 0 0 0 0 0 0 0 0 0 0 0 0 0 0 127 0" result="hardAlpha"/>
<feOffset dy="4"/>
<feGaussianBlur stdDeviation="2"/>
<feComposite in2="hardAlpha" operator="out"/>
<feColorMatrix type="matrix" values="0 0 0 0 0 0 0 0 0 0 0 0 0 0 0 0 0 0 0.25 0"/>
<feBlend mode="normal" in2="BackgroundImageFix" result="effect1_dropShadow_474_1491"/>
<feBlend mode="normal" in="SourceGraphic" in2="effect1_dropShadow_474_1491" result="shape"/>
</filter>
<linearGradient id="paint0_linear_474_1491" x1="47.2168" y1="54.0899" x2="79.3617" y2="23.1079" gradientUnits="userSpaceOnUse">
<stop stop-color="#0D6215"/>
<stop offset="0.9999" stop-color="#2E9E39"/>
</linearGradient>
<linearGradient id="paint1_linear_474_1491" x1="76.1639" y1="130.377" x2="76.1639" y2="149.832" gradientUnits="userSpaceOnUse">
<stop stop-color="#F2E9EE"/>
<stop offset="0.145" stop-color="#565354"/>
<stop offset="1" stop-color="#3C3A3B"/>
</linearGradient>
<linearGradient id="paint2_linear_474_1491" x1="41.9551" y1="130.187" x2="41.4687" y2="149.636" gradientUnits="userSpaceOnUse">
<stop stop-color="#FFD6D2"/>
<stop offset="0.175" stop-color="#E15549"/>
<stop offset="0.425" stop-color="#D35044"/>
<stop offset="0.636" stop-color="#C74C40"/>
<stop offset="0.745" stop-color="#AA4137"/>
<stop offset="0.826" stop-color="#943830"/>
<stop offset="0.9998" stop-color="#812B24"/>
<stop offset="0.9999" stop-color="#8A3129"/>
</linearGradient>
<linearGradient id="paint3_linear_474_1491" x1="110.356" y1="131.912" x2="109.87" y2="151.361" gradientUnits="userSpaceOnUse">
<stop stop-color="#D1F6FF"/>
<stop offset="0.15" stop-color="#38A9C4"/>
<stop offset="1" stop-color="#2A7D91"/>
</linearGradient>
<linearGradient id="paint4_linear_474_1491" x1="76.3286" y1="131.415" x2="76.3286" y2="150.87" gradientUnits="userSpaceOnUse">
<stop stop-color="#F2E9EE"/>
<stop offset="0.0725" stop-color="#A49EA1"/>
<stop offset="0.145" stop-color="#565354"/>
<stop offset="0.5725" stop-color="#494648"/>
<stop offset="0.786" stop-color="#3B3639"/>
<stop offset="1" stop-color="#3C3A3B"/>
</linearGradient>
<linearGradient id="paint5_linear_474_1491" x1="41.984" y1="131.224" x2="41.4975" y2="150.673" gradientUnits="userSpaceOnUse">
<stop stop-color="#FFD6D2"/>
<stop offset="0.16" stop-color="#E15549"/>
<stop offset="0.27" stop-color="#D35044"/>
<stop offset="0.36" stop-color="#C74C40"/>
<stop offset="0.485" stop-color="#AA4137"/>
<stop offset="0.76" stop-color="#7F3029"/>
<stop offset="0.865" stop-color="#8A342D"/>
<stop offset="0.99" stop-color="#943930"/>
</linearGradient>
<linearGradient id="paint6_linear_474_1491" x1="110.656" y1="132.955" x2="110.17" y2="152.405" gradientUnits="userSpaceOnUse">
<stop stop-color="#D1F6FF"/>
<stop offset="0.075" stop-color="#85D0E2"/>
<stop offset="0.15" stop-color="#38A9C4"/>
<stop offset="0.656" stop-color="#277A8E"/>
<stop offset="0.825333" stop-color="#225F6E"/>
</linearGradient>
</defs>
</svg>
