<svg width="197" height="219" viewBox="0 0 197 219" fill="none" xmlns="http://www.w3.org/2000/svg">
<path d="M181.163 111.831C181.163 159.598 142.196 198.331 94.115 198.331C46.034 198.331 7.06726 159.598 7.06726 111.831C7.06726 64.0649 46.034 25.332 94.115 25.332C142.196 25.332 181.163 64.0649 181.163 111.831Z" fill="#FF5152" stroke="black" stroke-width="2"/>
<path d="M170.848 123.835C169.144 143.097 159.422 160.836 143.818 173.151C128.215 185.467 108.01 191.349 87.6471 189.503C67.2845 187.658 48.4327 178.237 35.2388 163.312C22.045 148.388 15.5899 129.182 17.2936 109.92L94.0709 116.878L170.848 123.835Z" fill="#D21942"/>
<path d="M177.36 119.933C177.36 144.095 143.59 171.784 102.92 171.784C62.2497 171.784 15.6726 144.095 15.6726 119.933C15.6726 95.7708 52.6445 71.3224 93.3147 71.3224C133.985 71.3224 177.36 95.7708 177.36 119.933Z" fill="#FF5152"/>
<ellipse cx="1.60532" cy="1.62035" rx="1.60532" ry="1.62035" transform="matrix(0.999782 0.0208732 -0.0203743 0.999792 151.809 118.05)" fill="#5F4036"/>
<ellipse cx="58.8959" cy="103.73" rx="11.2061" ry="12.9629" fill="#00006F"/>
<ellipse cx="2.01462" cy="2.19523" rx="2.01462" ry="2.19523" transform="matrix(0.999782 0.0208732 -0.0203743 0.999792 30.1699 103.729)" fill="#5F4036"/>
<ellipse cx="2.01462" cy="2.19523" rx="2.01462" ry="2.19523" transform="matrix(0.999782 0.0208732 -0.0203743 0.999792 26.968 118.313)" fill="#5F4036" fill-opacity="0.66"/>
<path d="M45.7465 116.97C45.7218 118.182 44.8 119.146 43.6876 119.123C42.5752 119.1 41.6934 118.098 41.7181 116.886C41.7428 115.674 42.6646 114.71 43.777 114.733C44.8894 114.757 45.7712 115.758 45.7465 116.97Z" fill="#5F4036" fill-opacity="0.66"/>
<ellipse cx="2.01462" cy="2.19523" rx="2.01462" ry="2.19523" transform="matrix(0.999782 0.0208732 -0.0203743 0.999792 139.029 134.516)" fill="#5F4036"/>
<path d="M140.54 110.211C140.54 117.37 135.523 123.174 129.334 123.174C123.145 123.174 118.128 117.37 118.128 110.211C118.128 103.052 123.145 97.2481 129.334 97.2481C135.523 97.2481 140.54 103.052 140.54 110.211Z" fill="#00006F"/>
<ellipse cx="15.2097" cy="18.6324" rx="15.2097" ry="18.6324" transform="matrix(0.99613 0.0878886 -0.0858029 0.996312 79.7028 98.8685)" fill="#00006F"/>
<path d="M102.319 128.921C102.198 131.603 97.8033 133.577 92.504 133.331C87.2048 133.085 83.0074 130.712 83.1289 128.03C83.2505 125.348 87.6449 123.373 92.9441 123.619C98.2434 123.865 102.441 126.239 102.319 128.921Z" fill="#FF7778"/>
<ellipse cx="58.1941" cy="108.66" rx="4.8026" ry="5.67125" fill="white"/>
<ellipse cx="129.787" cy="115.763" rx="4.8026" ry="5.67125" fill="white"/>
<ellipse cx="55.3797" cy="96.7596" rx="3.20174" ry="3.24071" fill="#5F5EAC"/>
<ellipse cx="129.4" cy="105.046" rx="3.20174" ry="3.24071" fill="#5F5EAC"/>
<path d="M90.6429 24.4902L91.2743 3.53421L108.758 2.19207L106.074 25.8817L90.6429 24.4902Z" fill="#30A73C" stroke="black"/>
<path d="M37.0153 52.8293C35.7094 53.4677 34.0299 54.2888 31.7374 55.3923C31.8603 54.0788 32.5656 52.5701 33.7974 50.9296C35.1545 49.1222 37.1297 47.1828 39.593 45.2075C44.519 41.2576 51.3697 37.1863 59.0505 33.7609C66.7307 30.3359 75.2312 27.561 83.4543 26.1979C91.6804 24.8343 99.61 24.8867 106.16 27.0967L106.199 27.1098H106.24C121.825 27.1098 135.789 35.1922 145.874 43.3014C150.914 47.3535 154.977 51.4062 157.78 54.4457C159.181 55.9653 160.267 57.2313 161.002 58.1168C161.11 58.246 161.21 58.3671 161.302 58.4797C150.986 52.8312 137.009 52.623 122.522 54.6267C109.732 56.3955 96.4975 59.8959 84.9608 62.9472C82.9303 63.4843 80.9523 64.0074 79.0386 64.5048C72.6401 66.1677 66.9654 67.5409 62.4364 68.1873C60.172 68.5105 58.2036 68.6505 56.5798 68.5569C54.952 68.4631 53.6975 68.1359 52.8381 67.5484C51.9931 66.9707 51.5085 66.1272 51.4401 64.9337C51.3709 63.7253 51.7292 62.1547 52.5993 60.1545C54.3388 56.1558 58.081 50.5342 64.2781 42.8396L64.8478 42.1323L63.9964 42.4484C55.3212 45.67 50.3271 47.4615 47.1464 48.6026C45.103 49.3356 43.808 49.8002 42.7662 50.2029C40.9559 50.9028 39.893 51.4224 37.0153 52.8293Z" fill="url(#paint0_linear_479_40)" stroke="black" stroke-width="0.5"/>
<path d="M71.8162 65.2432C66.3424 66.5015 59.8097 68.4839 54.2066 66.8636C50.5995 64.3363 58.9165 53.4968 61.4105 49.8499C63.9046 46.203 55.402 60.2854 59.0092 62.8127C62.7549 67.1486 65.4127 65.2432 71.8162 65.2432Z" fill="#539059" fill-opacity="0.55"/>
<path d="M74.2996 43.1932C73.051 45.0372 71.2185 45.9632 70.2067 45.2613C69.1948 44.5594 69.3868 42.4955 70.6354 40.6514C71.884 38.8073 73.7165 37.8814 74.7283 38.5833C75.7402 39.2852 75.5482 41.3491 74.2996 43.1932Z" fill="#539059" fill-opacity="0.55"/>
<path d="M94.115 6.02202L105.321 4.88776V6.50811L94.115 9.74883V6.02202Z" fill="#115C19"/>
<ellipse cx="94.9155" cy="101.299" rx="12.0065" ry="13.773" fill="#FF5152"/>
<ellipse cx="1.46323" cy="1.50609" rx="1.46323" ry="1.50609" transform="matrix(0.999782 0.0208732 -0.0203743 0.999792 145.404 126.414)" fill="#5F4036" fill-opacity="0.91"/>
<ellipse cx="2.01462" cy="2.19523" rx="2.01462" ry="2.19523" transform="matrix(0.999782 0.0208732 -0.0203743 0.999792 36.5732 128.035)" fill="#5F4036"/>
<ellipse cx="2.07787" cy="2.38607" rx="2.07787" ry="2.38607" transform="matrix(0.999758 0.0219976 -0.0193328 0.999813 52.1453 138.25)" fill="#5F4036"/>
<ellipse cx="2.01462" cy="2.19523" rx="2.01462" ry="2.19523" transform="matrix(0.999782 0.0208732 -0.0203743 0.999792 153.436 132.896)" fill="#5F4036" fill-opacity="0.6"/>
<ellipse cx="2.01462" cy="2.19523" rx="2.01462" ry="2.19523" transform="matrix(0.999782 0.0208732 -0.0203743 0.999792 158.239 123.174)" fill="#5F4036"/>
<line y1="-0.5" x2="29.3356" y2="-0.5" transform="matrix(-0.372277 0.928122 -0.934243 -0.356638 52.178 185.854)" stroke="black"/>
<line y1="-0.5" x2="23.9539" y2="-0.5" transform="matrix(0.151972 0.988385 -0.992766 0.120062 110.423 195.324)" stroke="black"/>
<path d="M42.134 214.083L33.9764 211.223" stroke="black"/>
<line y1="-0.5" x2="9.76648" y2="-0.5" transform="matrix(0.993911 -0.110184 0.139566 0.990213 114.064 219)" stroke="black"/>
<path d="M5.50098 121.93C2.03732 126.188 0.14455 131.03 0.00795621 135.984C-0.128637 140.937 1.49562 145.832 4.72175 150.188C7.94787 154.545 12.6653 158.214 18.4123 160.837C24.1592 163.459 30.8486 164.341 37.6167 164.546V163.205C31.309 163.015 25.1769 161.63 19.8208 159.185C14.4648 156.741 10.0682 153.322 7.0615 149.261C4.05481 145.201 2.54103 140.64 2.66833 136.023C2.79563 131.406 4.55966 126.893 7.78774 122.925L5.50098 121.93Z" fill="black"/>
<g filter="url(#filter0_d_479_40)">
<rect x="0.584444" y="0.614438" width="64.0662" height="21.8316" transform="matrix(0.999702 0.0243923 -0.0256291 0.999671 59.8028 154.324)" fill="url(#paint1_linear_479_40)" stroke="#141313" stroke-width="1.2"/>
<path d="M45.8313 154.589L59.3574 154.919L58.7979 176.744L45.2718 176.414C43.3946 176.368 41.9118 174.809 41.96 172.932L42.3452 157.905C42.3933 156.028 43.9541 154.543 45.8313 154.589Z" fill="url(#paint2_linear_479_40)" stroke="#141313" stroke-width="1.2"/>
<path d="M125.433 156.548L138.959 156.878C140.836 156.924 142.319 158.483 142.271 160.36L141.886 175.387C141.838 177.264 140.277 178.748 138.4 178.702L124.873 178.372L125.433 156.548Z" fill="url(#paint3_linear_479_40)" stroke="#141313" stroke-width="1.2"/>
</g>
<g filter="url(#filter1_d_479_40)">
<rect x="0.243529" y="0.256005" width="65.0222" height="23.0559" transform="matrix(0.999744 0.0243933 -0.0256279 0.999627 60.0557 155.07)" fill="url(#paint4_linear_479_40)" stroke="black" stroke-width="0.5"/>
<path d="M45.84 155.467L59.787 155.81L59.2141 178.334L45.2671 177.991C43.1966 177.94 41.5608 176.221 41.6134 174.151L41.9956 159.123C42.0483 157.053 43.7695 155.416 45.84 155.467Z" fill="url(#paint5_linear_479_40)" stroke="black" stroke-width="0.5"/>
<path d="M125.432 156.997L139.379 157.337C141.449 157.387 143.085 159.107 143.032 161.177L142.636 176.632C142.582 178.702 140.861 180.339 138.79 180.289L124.843 179.949L125.432 156.997Z" fill="url(#paint6_linear_479_40)" stroke="black" stroke-width="0.5"/>
<path d="M87.8324 174.85C87.6824 174.85 87.5617 174.831 87.4705 174.793L87.4705 174.62C87.5221 174.639 87.5773 174.655 87.6361 174.667C87.6962 174.679 87.7556 174.685 87.8144 174.685C87.9068 174.685 87.9758 174.674 88.0214 174.652C88.0682 174.631 88.0916 174.587 88.0916 174.523C88.0916 174.483 88.082 174.451 88.0628 174.427C88.0436 174.403 88.0118 174.383 87.9674 174.366C87.923 174.348 87.8618 174.329 87.7838 174.31C87.6589 174.278 87.5713 174.237 87.5209 174.188C87.4705 174.137 87.4453 174.069 87.4453 173.981C87.4453 173.879 87.4825 173.799 87.5569 173.742C87.6313 173.684 87.7424 173.655 87.89 173.655C87.9572 173.655 88.0202 173.66 88.079 173.67C88.139 173.679 88.1858 173.69 88.2194 173.702L88.2194 173.875C88.1282 173.84 88.0274 173.823 87.917 173.823C87.8306 173.823 87.7634 173.834 87.7154 173.857C87.6673 173.88 87.6433 173.921 87.6433 173.981C87.6433 174.016 87.6517 174.044 87.6685 174.066C87.6854 174.087 87.7142 174.106 87.755 174.121C87.797 174.137 87.8546 174.154 87.9278 174.173C88.0226 174.197 88.0958 174.226 88.1474 174.26C88.2002 174.292 88.2368 174.331 88.2572 174.375C88.2788 174.418 88.2896 174.467 88.2896 174.523C88.2896 174.625 88.2518 174.705 88.1762 174.764C88.1006 174.821 87.986 174.85 87.8324 174.85ZM88.9749 174.85C88.8153 174.85 88.6911 174.812 88.6023 174.735C88.5147 174.658 88.4709 174.547 88.4709 174.402L88.4709 173.673L88.6671 173.673L88.6671 174.395C88.6671 174.492 88.6935 174.565 88.7463 174.613C88.8003 174.661 88.8765 174.685 88.9749 174.685C89.0721 174.685 89.1471 174.661 89.1999 174.613C89.2539 174.565 89.2809 174.492 89.2809 174.395L89.2809 173.673L89.4754 173.673L89.4754 174.402C89.4754 174.547 89.4316 174.658 89.3439 174.735C89.2563 174.812 89.1333 174.85 88.9749 174.85ZM89.6929 174.832L89.6929 173.673L89.8891 173.673L89.8891 174.832L89.6929 174.832ZM90.4172 174.832L90.4172 173.826L90.0463 173.826L90.0463 173.673L90.9824 173.673L90.9824 173.826L90.6134 173.826L90.6134 174.832L90.4172 174.832ZM91.6658 174.85C91.4749 174.85 91.3303 174.798 91.2319 174.694C91.1347 174.589 91.0861 174.448 91.0861 174.271C91.0861 174.143 91.1065 174.034 91.1473 173.943C91.1893 173.851 91.2529 173.78 91.3381 173.731C91.4233 173.68 91.5319 173.655 91.664 173.655C91.7312 173.655 91.7924 173.661 91.8476 173.671C91.904 173.681 91.9562 173.694 92.0042 173.711L92.0042 173.882C91.9562 173.863 91.9046 173.848 91.8494 173.839C91.7954 173.828 91.7384 173.823 91.6784 173.823C91.5343 173.823 91.4323 173.861 91.3723 173.938C91.3135 174.015 91.2841 174.125 91.2841 174.271C91.2841 174.406 91.3165 174.509 91.3813 174.58C91.4461 174.65 91.5463 174.685 91.682 174.685C91.7372 174.685 91.7924 174.68 91.8476 174.672C91.904 174.662 91.9568 174.648 92.006 174.629L92.006 174.802C91.958 174.817 91.9058 174.829 91.8494 174.838C91.7942 174.846 91.733 174.85 91.6658 174.85ZM92.1962 174.832L92.1962 173.673L92.3925 173.673L92.3925 174.177L92.9505 174.177L92.9505 173.673L93.1467 173.673L93.1467 174.832L92.9505 174.832L92.9505 174.328L92.3925 174.328L92.3925 174.832L92.1962 174.832Z" fill="white"/>
<path d="M86.2118 172.026L86.2798 172.027L86.5376 172.491L86.5418 172.029L86.6178 172.03L86.6177 172.037C86.6137 172.04 86.611 172.045 86.6096 172.049C86.6089 172.054 86.6085 172.062 86.6084 172.073L86.6031 172.652L86.5481 172.652L86.2776 172.16L86.2731 172.65L86.2061 172.649L86.2118 172.026ZM87.2372 172.658L87.2377 172.599L87.3607 172.6L87.3653 172.095L87.2493 172.094L87.2498 172.035L87.5588 172.038L87.5583 172.097L87.4353 172.096L87.4307 172.601L87.5597 172.603L87.5592 172.661L87.2372 172.658ZM88.2152 172.666L88.2208 172.042L88.6029 172.046L88.6023 172.108L88.2863 172.105L88.2844 172.31L88.5455 172.312L88.5449 172.376L88.2839 172.374L88.2818 172.605L88.5948 172.607L88.5942 172.669L88.2152 172.666ZM89.2119 172.052L89.2799 172.052L89.5377 172.517L89.5419 172.055L89.6179 172.055L89.6178 172.062C89.6138 172.066 89.6111 172.071 89.6097 172.075C89.609 172.08 89.6086 172.088 89.6085 172.099L89.6033 172.678L89.5483 172.678L89.2777 172.185L89.2733 172.675L89.2063 172.675L89.2119 172.052ZM90.3643 172.685L90.3694 172.124L90.1924 172.122L90.1929 172.059L90.6249 172.063L90.6244 172.126L90.4404 172.124L90.4353 172.685L90.3643 172.685ZM91.2373 172.692L91.2379 172.633L91.3609 172.634L91.3654 172.129L91.2494 172.128L91.25 172.069L91.559 172.072L91.5584 172.131L91.4354 172.13L91.4309 172.636L91.5599 172.637L91.5593 172.695L91.2373 172.692ZM92.2154 172.701L92.221 172.077L92.603 172.08L92.6025 172.142L92.2865 172.139L92.2846 172.344L92.5456 172.346L92.545 172.41L92.284 172.408L92.2819 172.639L92.5949 172.642L92.5944 172.704L92.2154 172.701ZM93.212 172.086L93.28 172.087L93.5379 172.551L93.5421 172.089L93.6181 172.09L93.618 172.097C93.614 172.101 93.6112 172.105 93.6099 172.11C93.6092 172.114 93.6088 172.122 93.6087 172.134L93.6034 172.713L93.5484 172.712L93.2778 172.22L93.2734 172.71L93.2064 172.709L93.212 172.086ZM94.2104 172.719L94.2161 172.095L94.3611 172.096C94.4144 172.097 94.4557 172.104 94.4849 172.119C94.5148 172.134 94.5399 172.155 94.5603 172.183C94.6005 172.238 94.6201 172.315 94.6193 172.413C94.616 172.477 94.6048 172.531 94.5858 172.578C94.5673 172.624 94.5384 172.659 94.4988 172.684C94.4599 172.709 94.4081 172.72 94.3434 172.72L94.2104 172.719ZM94.2769 172.664L94.3409 172.665C94.4123 172.665 94.4648 172.645 94.4985 172.602C94.5323 172.559 94.5492 172.497 94.5492 172.417C94.5493 172.335 94.5345 172.272 94.5049 172.225C94.476 172.179 94.4266 172.156 94.3566 172.155L94.2815 172.154L94.2769 172.664ZM95.4064 172.739C95.3351 172.738 95.2803 172.71 95.2421 172.655C95.204 172.599 95.1854 172.52 95.1863 172.418C95.1872 172.319 95.2072 172.242 95.2464 172.186C95.2856 172.129 95.3408 172.1 95.4122 172.101C95.4835 172.102 95.5382 172.131 95.5764 172.189C95.6145 172.246 95.6332 172.323 95.6323 172.422C95.6314 172.524 95.6113 172.602 95.5722 172.657C95.533 172.712 95.4777 172.74 95.4064 172.739ZM95.407 172.678C95.4543 172.678 95.4915 172.656 95.5186 172.612C95.5456 172.568 95.5595 172.504 95.5603 172.421C95.561 172.343 95.5482 172.28 95.522 172.233C95.4957 172.186 95.4589 172.163 95.4116 172.162C95.3643 172.162 95.3271 172.185 95.3 172.231C95.2729 172.278 95.259 172.34 95.2583 172.419C95.2575 172.501 95.2703 172.565 95.2966 172.61C95.3228 172.655 95.3596 172.678 95.407 172.678Z" fill="white"/>
</g>
<rect width="1.60624" height="6.54115" rx="0.803122" transform="matrix(0.430341 0.902666 -0.926864 0.375396 42.9225 160.995)" fill="black"/>
<rect width="1.56933" height="6.68299" rx="0.784663" transform="matrix(-0.198175 0.980167 -0.979571 -0.201097 43.2607 164.352)" fill="black"/>
<rect width="1.59129" height="6.57481" rx="0.795645" transform="matrix(-0.666494 0.745511 -0.778636 -0.627476 42.7151 167.302)" fill="black"/>
<rect width="1.40525" height="7.40078" rx="0.702624" transform="matrix(-0.579464 0.814998 0.965046 0.262082 140.36 165.73)" fill="black"/>
<rect width="1.26906" height="7.78463" rx="0.634528" transform="matrix(0.288693 0.957422 0.990658 -0.136367 139.962 168.382)" fill="black"/>
<rect width="1.56176" height="6.8549" rx="0.780882" transform="matrix(0.799992 0.600011 0.879775 -0.47539 140.605 170.712)" fill="black"/>
<path d="M163.984 166.249C158.817 168.582 153.062 169.524 147.196 168.995L147.19 167.337C152.784 167.823 158.279 166.917 163.22 164.685C168.323 162.381 172.674 158.736 175.892 154.075C179.11 149.413 181.096 143.88 181.682 137.961C182.241 132.314 182.251 125.723 180.3 120.033L180.792 120.033C182.979 126.013 183.806 132.309 183.204 138.389C182.591 144.581 180.514 150.356 177.162 155.212C173.811 160.067 169.285 163.855 163.984 166.249Z" fill="black" stroke="black"/>
<path d="M87.3212 164.66L91.2644 164.716L91.1005 170.42L87.1573 170.364C86.6603 170.357 86.269 169.949 86.2832 169.452L86.3955 165.547C86.4098 165.05 86.8242 164.653 87.3212 164.66Z" fill="#4B4849" stroke="#ABABAB" stroke-width="0.2"/>
<path d="M92.0062 164.609L95.4187 164.658C95.971 164.665 96.4058 165.119 96.3899 165.671L96.2777 169.576C96.2618 170.128 95.8013 170.57 95.249 170.562L91.8365 170.513L92.0062 164.609Z" fill="#BABABA"/>
<path d="M94.5997 168.623C94.594 168.906 94.3309 169.133 94.0122 169.129C93.6935 169.125 93.4398 168.893 93.4455 168.61C93.4513 168.327 93.7143 168.1 94.033 168.104C94.3517 168.108 94.6055 168.34 94.5997 168.623Z" fill="#343434"/>
<path d="M89.6357 166.327C89.6291 166.65 89.339 166.908 88.9878 166.904C88.6365 166.9 88.3571 166.635 88.3636 166.312C88.3702 165.989 88.6603 165.73 89.0115 165.734C89.3628 165.739 89.6422 166.004 89.6357 166.327Z" fill="#BABABA"/>
<ellipse cx="57.6386" cy="158.035" rx="0.606722" ry="0.591892" fill="#343434"/>
<ellipse cx="44.2907" cy="160.403" rx="0.606722" ry="0.591892" fill="#343434"/>
<ellipse cx="44.2907" cy="174.608" rx="0.606722" ry="0.591892" fill="#343434"/>
<ellipse cx="57.6386" cy="175.792" rx="0.606722" ry="0.591892" fill="#343434"/>
<path d="M45.0316 159.096C44.9877 158.369 45.6978 156.938 47.4585 156.728C49.4401 156.614 55.6393 156.858 55.6832 157.585C55.7272 158.312 55.914 158.065 53.9324 158.179C51.9508 158.293 45.0756 159.823 45.0316 159.096Z" fill="#343434"/>
<path d="M139.522 161.403C139.566 160.676 138.933 159.25 137.344 159.05C135.556 158.947 129.6 159.084 129.557 159.811C129.557 160.243 129.419 160.433 131.208 160.536C132.997 160.639 139.478 162.13 139.522 161.403Z" fill="#343434"/>
<ellipse cx="0.606722" cy="0.591892" rx="0.606722" ry="0.591892" transform="matrix(-1 0 0 1 128.625 158.627)" fill="#343434"/>
<ellipse cx="0.606722" cy="0.591892" rx="0.606722" ry="0.591892" transform="matrix(-1 0 0 1 141.973 160.995)" fill="#343434"/>
<ellipse cx="0.606722" cy="0.591892" rx="0.606722" ry="0.591892" transform="matrix(-1 0 0 1 140.759 176.384)" fill="#343434"/>
<ellipse cx="0.606722" cy="0.591892" rx="0.606722" ry="0.591892" transform="matrix(-1 0 0 1 128.625 176.384)" fill="#343434"/>
<defs>
<filter id="filter0_d_479_40" x="37.3588" y="153.988" width="109.513" height="33.3152" filterUnits="userSpaceOnUse" color-interpolation-filters="sRGB">
<feFlood flood-opacity="0" result="BackgroundImageFix"/>
<feColorMatrix in="SourceAlpha" type="matrix" values="0 0 0 0 0 0 0 0 0 0 0 0 0 0 0 0 0 0 127 0" result="hardAlpha"/>
<feOffset dy="4"/>
<feGaussianBlur stdDeviation="2"/>
<feComposite in2="hardAlpha" operator="out"/>
<feColorMatrix type="matrix" values="0 0 0 0 0 0 0 0 0 0 0 0 0 0 0 0 0 0 0.25 0"/>
<feBlend mode="normal" in2="BackgroundImageFix" result="effect1_dropShadow_479_40"/>
<feBlend mode="normal" in="SourceGraphic" in2="effect1_dropShadow_479_40" result="shape"/>
</filter>
<filter id="filter1_d_479_40" x="37.3622" y="155.076" width="109.921" height="33.4644" filterUnits="userSpaceOnUse" color-interpolation-filters="sRGB">
<feFlood flood-opacity="0" result="BackgroundImageFix"/>
<feColorMatrix in="SourceAlpha" type="matrix" values="0 0 0 0 0 0 0 0 0 0 0 0 0 0 0 0 0 0 127 0" result="hardAlpha"/>
<feOffset dy="4"/>
<feGaussianBlur stdDeviation="2"/>
<feComposite in2="hardAlpha" operator="out"/>
<feColorMatrix type="matrix" values="0 0 0 0 0 0 0 0 0 0 0 0 0 0 0 0 0 0 0.25 0"/>
<feBlend mode="normal" in2="BackgroundImageFix" result="effect1_dropShadow_479_40"/>
<feBlend mode="normal" in="SourceGraphic" in2="effect1_dropShadow_479_40" result="shape"/>
</filter>
<linearGradient id="paint0_linear_479_40" x1="57.2949" y1="64.0307" x2="95.3705" y2="26.4131" gradientUnits="userSpaceOnUse">
<stop stop-color="#0D6215"/>
<stop offset="0.9999" stop-color="#2E9E39"/>
</linearGradient>
<linearGradient id="paint1_linear_479_40" x1="32.6331" y1="0" x2="32.6331" y2="23.0316" gradientUnits="userSpaceOnUse">
<stop stop-color="#F2E9EE"/>
<stop offset="0.145" stop-color="#565354"/>
<stop offset="1" stop-color="#3C3A3B"/>
</linearGradient>
<linearGradient id="paint2_linear_479_40" x1="50.9103" y1="154.113" x2="50.3485" y2="177.138" gradientUnits="userSpaceOnUse">
<stop stop-color="#FFD6D2"/>
<stop offset="0.175" stop-color="#E15549"/>
<stop offset="0.425" stop-color="#D35044"/>
<stop offset="0.636" stop-color="#C74C40"/>
<stop offset="0.745" stop-color="#AA4137"/>
<stop offset="0.826" stop-color="#943830"/>
<stop offset="0.9998" stop-color="#812B24"/>
<stop offset="0.9999" stop-color="#8A3129"/>
</linearGradient>
<linearGradient id="paint3_linear_479_40" x1="133.911" y1="156.155" x2="133.349" y2="179.179" gradientUnits="userSpaceOnUse">
<stop stop-color="#D1F6FF"/>
<stop offset="0.15" stop-color="#38A9C4"/>
<stop offset="1" stop-color="#2A7D91"/>
</linearGradient>
<linearGradient id="paint4_linear_479_40" x1="32.7611" y1="0" x2="32.7611" y2="23.5559" gradientUnits="userSpaceOnUse">
<stop stop-color="#F2E9EE"/>
<stop offset="0.0725" stop-color="#A49EA1"/>
<stop offset="0.145" stop-color="#565354"/>
<stop offset="0.5725" stop-color="#363636"/>
<stop offset="0.786" stop-color="#272727"/>
<stop offset="1" stop-color="#363636"/>
</linearGradient>
<linearGradient id="paint5_linear_479_40" x1="50.9454" y1="155.342" x2="50.3792" y2="178.367" gradientUnits="userSpaceOnUse">
<stop stop-color="#FFD6D2"/>
<stop offset="0.16" stop-color="#E15549"/>
<stop offset="0.27" stop-color="#D35044"/>
<stop offset="0.36" stop-color="#C74C40"/>
<stop offset="0.485" stop-color="#AA4137"/>
<stop offset="0.76" stop-color="#7F3029"/>
<stop offset="0.865" stop-color="#8A342D"/>
<stop offset="0.99" stop-color="#943930"/>
</linearGradient>
<linearGradient id="paint6_linear_479_40" x1="134.286" y1="156.963" x2="133.714" y2="180.415" gradientUnits="userSpaceOnUse">
<stop stop-color="#D1F6FF"/>
<stop offset="0.075" stop-color="#85D0E2"/>
<stop offset="0.15" stop-color="#38A9C4"/>
<stop offset="0.656" stop-color="#277A8E"/>
<stop offset="0.825333" stop-color="#225F6E"/>
</linearGradient>
</defs>
</svg>
