<svg width="414" height="209" viewBox="0 0 414 209" fill="none" xmlns="http://www.w3.org/2000/svg">
<path fill-rule="evenodd" clip-rule="evenodd" d="M383 162.67C426.63 162.67 462 126.255 462 81.335C462 36.4149 426.63 0 383 0C356.485 0 333.02 13.4492 318.691 34.0832C313.863 32.6717 308.767 31.9163 303.5 31.9163C284.219 31.9163 267.235 42.0385 257.287 57.4029C249.984 49.3241 239.565 44.2709 228 44.2709C212.366 44.2709 198.826 53.5056 192.247 66.966C181.307 60.3922 168.581 56.6256 155 56.6256C130.225 56.6256 108.294 69.1605 94.8628 88.4062C90.4494 87.1525 85.8007 86.4828 81 86.4828C72.8397 86.4828 65.1184 88.418 58.2455 91.867C50.671 78.1964 36.3808 68.9803 20 68.9803C-4.30053 68.9803 -24 89.262 -24 114.281C-24 139.3 -4.30053 159.581 20 159.581C24.1477 159.581 28.1614 158.99 31.966 157.886C39.1101 178.669 58.3664 193.557 81 193.557C89.266 193.557 97.0816 191.571 104.021 188.038C117.293 201.028 135.242 209 155 209C195.869 209 229 174.89 229 132.813C229 130.731 228.919 128.668 228.76 126.628C238.692 126.438 247.739 122.52 254.637 116.176C264.017 134.052 282.381 146.197 303.5 146.197C312.459 146.197 320.921 144.012 328.413 140.131C342.597 154.093 361.826 162.67 383 162.67Z" fill="url(#paint0_linear_286_841)"/>
<defs>
<linearGradient id="paint0_linear_286_841" x1="219" y1="0" x2="219" y2="209" gradientUnits="userSpaceOnUse">
<stop stop-color="#C3CED2" stop-opacity="0.27"/>
<stop offset="1" stop-color="#BFE7F5" stop-opacity="0.64"/>
</linearGradient>
</defs>
</svg>
