<svg width="163" height="185" viewBox="0 0 163 185" fill="none" xmlns="http://www.w3.org/2000/svg">
<path d="M149.12 94.4693C149.12 134.757 117.065 167.384 77.5602 167.384C38.056 167.384 6 134.757 6 94.4693C6 54.182 38.056 21.5544 77.5602 21.5544C117.065 21.5544 149.12 54.182 149.12 94.4693Z" fill="#FF5152" stroke="black" stroke-width="2"/>
<path d="M140.796 104.61C139.392 120.881 131.38 135.866 118.521 146.269C105.662 156.673 89.011 161.641 72.2302 160.083C55.4494 158.524 39.9135 150.565 29.0405 137.958C18.1674 125.35 12.8478 109.126 14.2518 92.8552L77.524 98.7324L140.796 104.61Z" fill="#D21942"/>
<path d="M145.247 101.064C145.247 121.475 117.417 144.865 83.9006 144.865C50.3842 144.865 12 121.475 12 101.064C12 80.6528 42.4686 60 75.9849 60C109.501 60 145.247 80.6528 145.247 101.064Z" fill="#FF5152"/>
<ellipse cx="1.32296" cy="1.36877" rx="1.32296" ry="1.36877" transform="matrix(0.999771 0.0213959 -0.0198765 0.999802 125.106 99.723)" fill="#5F4036"/>
<path d="M57.7711 87.6254C57.7711 86.1874 57.5322 84.7634 57.0681 83.4349C56.604 82.1063 55.9238 80.8992 55.0662 79.8823C54.2087 78.8655 53.1906 78.0589 52.0702 77.5086C50.9498 76.9583 49.7489 76.675 48.5361 76.675C47.3234 76.675 46.1225 76.9583 45.0021 77.5086C43.8817 78.0589 42.8636 78.8655 42.0061 79.8823C41.1485 80.8992 40.4683 82.1063 40.0042 83.4349C39.5401 84.7634 39.3012 86.1874 39.3012 87.6254H42.1206C42.1206 86.6264 42.2866 85.6372 42.609 84.7143C42.9314 83.7913 43.404 82.9527 43.9997 82.2463C44.5954 81.5399 45.3027 80.9796 46.081 80.5973C46.8594 80.215 47.6937 80.0182 48.5361 80.0182C49.3786 80.0182 50.2129 80.215 50.9913 80.5973C51.7696 80.9796 52.4769 81.5399 53.0726 82.2463C53.6683 82.9527 54.1409 83.7913 54.4633 84.7143C54.7857 85.6372 54.9516 86.6264 54.9516 87.6254H57.7711Z" fill="#00006F"/>
<path d="M115.47 92.9504C115.47 91.5123 115.231 90.0884 114.767 88.7598C114.303 87.4313 113.623 86.2241 112.765 85.2073C111.907 84.1905 110.889 83.3839 109.769 82.8335C108.649 82.2832 107.448 82 106.235 82C105.022 82 103.821 82.2832 102.701 82.8335C101.58 83.3839 100.562 84.1905 99.7049 85.2073C98.8473 86.2241 98.1671 87.4313 97.703 88.7598C97.2389 90.0884 97 91.5123 97 92.9504H99.8194C99.8194 91.9514 99.9854 90.9622 100.308 90.0392C100.63 89.1163 101.103 88.2776 101.698 87.5713C102.294 86.8649 103.001 86.3045 103.78 85.9222C104.558 85.5399 105.392 85.3432 106.235 85.3432C107.077 85.3432 107.912 85.5399 108.69 85.9222C109.468 86.3045 110.176 86.8649 110.771 87.5713C111.367 88.2776 111.84 89.1163 112.162 90.0392C112.484 90.9622 112.65 91.9514 112.65 92.9504H115.47Z" fill="#00006F"/>
<ellipse cx="1.66027" cy="1.8544" rx="1.66027" ry="1.8544" transform="matrix(0.999771 0.0213959 -0.0198765 0.999802 24.863 87.6254)" fill="#5F4036"/>
<ellipse cx="1.66027" cy="1.8544" rx="1.66027" ry="1.8544" transform="matrix(0.999771 0.0213959 -0.0198765 0.999802 22.2244 99.9445)" fill="#5F4036" fill-opacity="0.66"/>
<path d="M37.6998 98.8104C37.6794 99.8344 36.9197 100.649 36.003 100.629C35.0863 100.609 34.3596 99.7633 34.38 98.7394C34.4003 97.7154 35.16 96.9013 36.0767 96.9209C36.9935 96.9405 37.7201 97.7865 37.6998 98.8104Z" fill="#5F4036" fill-opacity="0.66"/>
<ellipse cx="1.66027" cy="1.8544" rx="1.66027" ry="1.8544" transform="matrix(0.999771 0.0213959 -0.0198765 0.999802 114.574 113.632)" fill="#5F4036"/>
<path d="M89.2891 101.94C89.4621 99.8808 89.3105 97.8124 88.8428 95.853C88.3752 93.8937 87.6008 92.0818 86.5637 90.5208C85.5266 88.9597 84.2472 87.6801 82.7986 86.7551C81.35 85.83 79.7605 85.2775 78.1208 85.1292C76.4811 84.9809 74.8235 85.2397 73.2424 85.8908C71.6613 86.5419 70.1879 87.5725 68.9061 88.9238C67.6244 90.2751 66.5594 91.9207 65.7721 93.7665C64.9848 95.6124 64.4905 97.6223 64.3175 99.6817L76.8033 100.811L89.2891 101.94Z" fill="#00006F"/>
<path d="M74.7887 20.6183L75.3049 3.05709L89.5299 1.93778L87.3366 21.7782L74.7887 20.6183Z" fill="#30A73C" stroke="black"/>
<path d="M30.4805 44.5949C29.4183 45.1272 28.0565 45.8096 26.206 46.723C26.3247 45.6393 26.8985 44.3965 27.8894 43.0436C29.0052 41.5204 30.6302 39.8845 32.6586 38.2173C36.7145 34.8836 42.3567 31.4463 48.6837 28.554C55.01 25.662 62.0113 23.3194 68.783 22.1687C75.5577 21.0176 82.0834 21.0628 87.4709 22.926L87.5106 22.9398H87.5526C100.379 22.9398 111.877 29.759 120.185 36.6071C124.336 40.0285 127.683 43.4504 129.992 46.017C131.146 47.3001 132.041 48.369 132.647 49.1166C132.688 49.1672 132.727 49.2164 132.766 49.2641C124.269 44.5859 112.818 44.4269 100.963 46.1075C90.4203 47.6022 79.5103 50.5601 70.003 53.1376C68.3298 53.5913 66.7 54.0331 65.1233 54.4532C59.8501 55.8579 55.1761 57.0172 51.4469 57.5628C49.5823 57.8356 47.9639 57.9534 46.6304 57.8747C45.2931 57.7957 44.2695 57.5203 43.5712 57.031C42.8867 56.5514 42.4917 55.8503 42.4358 54.8508C42.3792 53.8374 42.6723 52.5162 43.3884 50.8289C44.8199 47.4557 47.9012 42.7102 53.0078 36.2107L53.5647 35.5019L52.7223 35.8226C45.5747 38.5434 41.4586 40.057 38.8367 41.0211C37.1522 41.6406 36.0844 42.0332 35.2259 42.3734C33.7321 42.9654 32.8539 43.4055 30.4805 44.5949Z" fill="url(#paint0_linear_485_218)" stroke="black" stroke-width="0.5"/>
<path d="M59.1838 55.1141C54.6729 56.1771 49.2892 57.8517 44.6718 56.4829C41.6991 54.348 48.5531 45.1913 50.6085 42.1106C52.6638 39.0299 45.6569 50.926 48.6295 53.0609C51.7164 56.7237 53.9067 55.1141 59.1838 55.1141Z" fill="#539059" fill-opacity="0.55"/>
<path d="M61.2303 36.4874C60.2014 38.0452 58.6912 38.8273 57.8574 38.2344C57.0235 37.6415 57.1817 35.898 58.2107 34.3402C59.2397 32.7824 60.7498 32.0002 61.5837 32.5932C62.4175 33.1861 62.2593 34.9296 61.2303 36.4874Z" fill="#539059" fill-opacity="0.55"/>
<path d="M77.5602 5.08707L86.7952 4.12891V5.4977L77.5602 8.23529V5.08707Z" fill="#115C19"/>
<ellipse cx="1.20586" cy="1.27226" rx="1.20586" ry="1.27226" transform="matrix(0.999771 0.0213959 -0.0198765 0.999802 119.828 106.789)" fill="#5F4036" fill-opacity="0.91"/>
<ellipse cx="1.66027" cy="1.8544" rx="1.66027" ry="1.8544" transform="matrix(0.999771 0.0213959 -0.0198765 0.999802 30.14 108.157)" fill="#5F4036"/>
<ellipse cx="1.7124" cy="2.01561" rx="1.7124" ry="2.01561" transform="matrix(0.999746 0.0225485 -0.0188605 0.999822 42.973 116.787)" fill="#5F4036"/>
<ellipse cx="1.66027" cy="1.8544" rx="1.66027" ry="1.8544" transform="matrix(0.999771 0.0213959 -0.0198765 0.999802 126.447 112.264)" fill="#5F4036" fill-opacity="0.6"/>
<ellipse cx="1.66027" cy="1.8544" rx="1.66027" ry="1.8544" transform="matrix(0.999771 0.0213959 -0.0198765 0.999802 130.405 104.051)" fill="#5F4036"/>
<line x1="43.4656" y1="157.182" x2="34.4656" y2="180.182" stroke="black"/>
<line y1="-0.5" x2="20.2237" y2="-0.5" transform="matrix(0.14834 0.988936 -0.992404 0.123025 91 165)" stroke="black"/>
<path d="M34.7227 180.846L28.0001 178.43" stroke="black"/>
<line y1="-0.5" x2="8.05149" y2="-0.5" transform="matrix(0.993605 -0.11291 0.136218 0.990679 94 185)" stroke="black"/>
<path d="M4.53337 103C1.67895 106.597 0.119124 110.688 0.00655672 114.872C-0.10601 119.057 1.23254 123.191 3.8912 126.871C6.54985 130.551 10.4375 133.651 15.1736 135.867C19.9097 138.082 25.4224 138.827 31 139V137.868C25.8018 137.707 20.7483 136.537 16.3344 134.472C11.9204 132.407 8.29721 129.518 5.81939 126.088C3.34157 122.658 2.09406 118.805 2.19897 114.905C2.30388 111.005 3.75762 107.193 6.41788 103.841L4.53337 103Z" fill="black"/>
<rect width="1.35079" height="5.4098" rx="0.675396" transform="matrix(0.421713 0.90673 -0.923568 0.383434 35.3724 136)" fill="black"/>
<rect width="1.32443" height="5.51311" rx="0.662215" transform="matrix(-0.193514 0.981098 -0.978568 -0.205924 35.6512 138.836)" fill="black"/>
<rect width="1.32975" height="5.47216" rx="0.664873" transform="matrix(-0.657291 0.753637 -0.770973 -0.636868 35.2015 141.328)" fill="black"/>
<rect width="1.17742" height="6.10961" rx="0.58871" transform="matrix(-0.56994 0.821686 0.963368 0.268182 115.671 140)" fill="black"/>
<rect width="1.06987" height="6.41835" rx="0.534937" transform="matrix(0.282205 0.959354 0.990191 -0.139718 115.343 142.24)" fill="black"/>
<rect width="1.29875" height="5.68143" rx="0.649376" transform="matrix(0.792784 0.609502 0.874774 -0.484531 115.873 144.208)" fill="black"/>
<path d="M135.105 140.367C130.892 142.317 126.2 143.113 121.416 142.687L121.475 141.545C126.076 141.937 130.485 141.069 134.544 139.19C138.765 137.236 142.363 134.146 145.024 130.195C147.684 126.245 149.325 121.557 149.809 116.545C150.267 111.807 150.28 106.274 148.703 101.478L148.928 101.478C150.713 106.505 151.387 111.794 150.894 116.901C150.39 122.12 148.682 126.985 145.929 131.074C143.175 135.163 139.458 138.352 135.105 140.367Z" fill="black" stroke="black"/>
<path d="M83.2116 101.129C83.2456 100.733 83.1119 100.327 82.8179 99.9332C82.5239 99.5395 82.0755 99.1662 81.4983 98.8346C80.921 98.503 80.2262 98.2195 79.4535 98.0004C78.6809 97.7813 77.8455 97.6309 76.995 97.5576C76.1446 97.4844 75.2957 97.4898 74.497 97.5736C73.6982 97.6574 72.9652 97.8179 72.3398 98.046C71.7143 98.274 71.2087 98.5652 70.8518 98.9028C70.4948 99.2404 70.2936 99.6178 70.2595 100.014L76.7355 100.571L83.2116 101.129Z" fill="#FF8F8F"/>
<path d="M146.726 58V56.2741L157.311 40.473H146.611V38.3636H160.149V40.0895L149.564 55.8906H160.264V58H146.726Z" fill="black"/>
<path d="M126.278 75V73.7216L134.119 62.017H126.193V60.4545H136.222V61.733L128.381 73.4375H136.307V75H126.278Z" fill="black"/>
<path d="M65 99H67V126C67 126.552 66.5523 127 66 127C65.4477 127 65 126.552 65 126V99Z" fill="#D9D9D9"/>
<path d="M12.932 94.7723C12.7182 87.1091 13.8516 79.4227 16.2534 72.2467C18.6551 65.0707 22.2678 58.5769 26.8406 53.2162L28.9696 56.0314C24.7363 60.9941 21.3919 67.0057 19.1684 73.649C16.945 80.2922 15.8958 87.4078 16.0937 94.5021L12.932 94.7723Z" fill="white" fill-opacity="0.34"/>
<defs>
<linearGradient id="paint0_linear_485_218" x1="47.2168" y1="54.0899" x2="79.3617" y2="23.1079" gradientUnits="userSpaceOnUse">
<stop stop-color="#0D6215"/>
<stop offset="0.9999" stop-color="#2E9E39"/>
</linearGradient>
</defs>
</svg>
